<?xml version="1.0" encoding="UTF-8" standalone="no"?>
<!-- Created with Inkscape (http://www.inkscape.org/) -->

<svg
   xmlns:dc="http://purl.org/dc/elements/1.1/"
   xmlns:cc="http://creativecommons.org/ns#"
   xmlns:rdf="http://www.w3.org/1999/02/22-rdf-syntax-ns#"
   xmlns:svg="http://www.w3.org/2000/svg"
   xmlns="http://www.w3.org/2000/svg"
   xmlns:xlink="http://www.w3.org/1999/xlink"
   xmlns:sodipodi="http://sodipodi.sourceforge.net/DTD/sodipodi-0.dtd"
   xmlns:inkscape="http://www.inkscape.org/namespaces/inkscape"
   width="400"
   height="250"
   id="svg2"
   version="1.1"
   viewBox="0 0 400 250"
   inkscape:version="0.48.4 r9939"
   sodipodi:docname="akumulator.svg"
   inkscape:export-filename="D:\Testowane projekty\Merix_nowa Strona\Logo Home\akumulator.png"
   inkscape:export-xdpi="90"
   inkscape:export-ydpi="90">
  <defs
     id="defs4" />
  <sodipodi:namedview
     id="base"
     pagecolor="#ffffff"
     bordercolor="#666666"
     borderopacity="1.0"
     inkscape:pageopacity="0.0"
     inkscape:pageshadow="2"
     inkscape:zoom="1.979899"
     inkscape:cx="202.54787"
     inkscape:cy="118.36653"
     inkscape:document-units="px"
     inkscape:current-layer="layer1"
     showgrid="false"
     inkscape:window-width="1288"
     inkscape:window-height="829"
     inkscape:window-x="100"
     inkscape:window-y="100"
     inkscape:window-maximized="0" />
  <metadata
     id="metadata7">
    <rdf:RDF>
      <cc:Work
         rdf:about="">
        <dc:format>image/svg+xml</dc:format>
        <dc:type
           rdf:resource="http://purl.org/dc/dcmitype/StillImage" />
        <dc:title></dc:title>
      </cc:Work>
    </rdf:RDF>
  </metadata>
  <g
     inkscape:label="Layer 1"
     inkscape:groupmode="layer"
     id="layer1"
     transform="translate(0,-802.36217)">
    <g
       style="fill:#ffffff"
       transform="matrix(4.4265745,0,0,4.4265745,-132.69913,757.15595)"
       id="g4437">
	<defs
   id="defs4439">
		<rect
   height="20.365999"
   width="89.874001"
   y="28.268999"
   x="30.223"
   id="SVGID_1_" />

	</defs>

	<clipPath
   id="SVGID_2_">
		<use
   height="68.790001"
   width="150.319"
   y="0"
   x="0"
   style="overflow:visible"
   id="use4443"
   overflow="visible"
   xlink:href="#SVGID_1_" />

	</clipPath>

	<path
   style="fill:#ffffff"
   inkscape:connector-curvature="0"
   id="path4445"
   d="m 33.553,35.258 c 0.416,-0.02 0.783,0.077 1.054,0.196 0.487,0.216 0.892,0.57 1.213,1.065 0.334,0.495 0.5,1.06 0.5,1.694 l 10e-4,1.332 v 1.219 0.608 h -1.078 c -0.295,0 -0.532,-0.006 -0.711,-0.019 -1.156,-0.063 -2.029,-0.387 -2.619,-0.971 -0.322,-0.312 -0.554,-0.664 -0.708,-1.055 -0.464,-1.151 -0.225,-2.536 0.654,-3.566 0.533,-0.304 1.116,-0.471 1.694,-0.503 m 5.504,-1.655 -0.865,1.021 -0.792,0.933 -0.371,0.437 -0.37,-0.437 -0.791,-0.933 -0.866,-1.021 c -0.374,-0.44 -0.606,-0.925 -0.695,-1.45 -0.017,-0.098 -0.03,-0.195 -0.037,-0.296 -0.006,-0.07 -0.009,-0.143 -0.009,-0.215 0,-1.521 1.194,-3.103 2.771,-3.373 1.577,0.271 2.77,1.853 2.77,3.373 0,0.32 -0.052,0.63 -0.151,0.921 -0.121,0.37 -0.319,0.717 -0.594,1.04 M 37.747,48.53 C 37.669,48.511 37.589,48.492 37.512,48.469 37.393,48.435 37.276,48.395 37.16,48.351 36.983,48.286 36.808,48.208 36.637,48.125 l -0.034,-0.019 c -0.094,-0.049 -0.189,-0.1 -0.282,-0.153 -0.946,-0.544 -1.778,-1.281 -2.476,-2.14 -0.493,-0.645 -0.92,-1.354 -1.174,-2.138 0.093,0.789 0.364,1.537 0.742,2.227 0.549,0.926 1.292,1.705 2.195,2.265 0.244,0.141 0.498,0.264 0.761,0.362 h -0.82 -1.27 C 33.97,48.514 33.643,48.49 33.295,48.449 33.018,48.418 32.746,48.352 32.477,48.256 31.913,48.057 31.404,47.704 31.002,47.21 29.974,45.945 29.984,44.113 30.91,42.722 c 0.079,-0.125 0.166,-0.244 0.261,-0.358 1.492,-0.896 3.364,-0.658 4.431,0.653 0.13,0.161 0.249,0.332 0.34,0.511 0.08,0.137 0.134,0.284 0.187,0.435 0.128,0.317 0.192,0.66 0.192,1.027 l -10e-4,1.398 c 0.016,0.141 0.036,0.268 0.06,0.392 0.026,0.189 0.058,0.36 0.097,0.513 0.033,0.119 0.075,0.215 0.126,0.287 0.01,0.014 0.019,0.025 0.028,0.037 0.078,0.088 0.168,0.168 0.267,0.239 l 0.849,0.674 z"
   clip-path="url(#SVGID_2_)" />

	<path
   style="fill:#ffffff"
   inkscape:connector-curvature="0"
   id="path4447"
   d="m 55.681,41.119 c 0.065,-0.231 0.098,-0.474 0.098,-0.727 0,-0.465 -0.116,-0.872 -0.348,-1.229 -0.23,-0.354 -0.566,-0.642 -1.023,-0.857 -0.227,-0.103 -0.469,-0.178 -0.726,-0.226 -0.251,-0.047 -0.517,-0.07 -0.795,-0.07 -0.206,0 -0.372,0.005 -0.5,0.014 -0.06,0.005 -0.112,0.01 -0.159,0.014 l -0.008,0.039 c -0.009,0.032 -0.018,0.083 -0.026,0.139 -0.001,0.07 -0.005,0.169 -0.015,0.292 0,0.121 -0.005,0.294 -0.015,0.52 -0.01,0.347 -0.021,0.737 -0.03,1.172 v 1.268 1.072 0.386 c 0.335,-0.003 0.65,-0.018 0.943,-0.042 0.349,-0.038 0.684,-0.111 1.004,-0.217 0.306,-0.094 0.565,-0.22 0.777,-0.376 0.217,-0.157 0.388,-0.333 0.516,-0.522 0.14,-0.205 0.241,-0.422 0.307,-0.65 m -18.782,6.737 c 0.098,-0.07 0.184,-0.147 0.261,-0.234 0.043,-0.052 0.078,-0.111 0.11,-0.185 l 0.009,-0.021 0.007,-0.02 0.008,-0.023 0.005,-0.017 0.009,-0.027 0.01,-0.038 c 0.04,-0.151 0.071,-0.322 0.097,-0.513 0.038,-0.189 0.064,-0.387 0.077,-0.59 0.013,-0.216 0.02,-0.425 0.02,-0.628 v -0.723 c 0.012,-0.306 0.019,-0.636 0.019,-0.99 0.011,-0.368 0.019,-0.743 0.019,-1.123 V 41.62 40.611 39.773 c 0,-0.279 -0.006,-0.563 -0.018,-0.855 l 0.013,-0.705 c 0,-0.762 0.211,-1.39 0.634,-1.885 0.423,-0.495 0.962,-0.861 1.617,-1.104 0.41,-0.152 0.84,-0.253 1.29,-0.304 0.405,-0.06 0.832,-0.091 1.282,-0.095 0.442,0.004 0.864,0.036 1.264,0.095 0.449,0.051 0.879,0.151 1.29,0.304 0.654,0.242 1.194,0.608 1.617,1.104 0.424,0.495 0.635,1.123 0.635,1.885 0,0.838 -0.276,1.517 -0.828,2.036 -0.539,0.508 -1.244,0.894 -2.117,1.07 0.462,0.051 0.918,0.198 1.366,0.376 0.449,0.165 0.847,0.394 1.194,0.686 0.36,0.292 0.642,0.641 0.846,1.048 0.219,0.392 0.328,0.843 0.328,1.351 0,0.456 -0.071,0.869 -0.211,1.237 -0.141,0.368 -0.327,0.69 -0.559,0.97 -0.23,0.28 -0.488,0.521 -0.77,0.724 -0.283,0.189 -0.564,0.337 -0.847,0.438 -0.488,0.176 -1.032,0.284 -1.636,0.322 -0.603,0.038 -1.186,0.057 -1.753,0.057 h -3.94 -0.502 l -0.846,-0.672 z m 5.518,-12.597 c -0.416,-0.021 -0.782,0.075 -1.055,0.195 -0.488,0.216 -0.891,0.57 -1.213,1.066 -0.333,0.494 -0.5,1.059 -0.5,1.693 v 1.332 1.219 0.608 h 1.077 c 0.295,0 0.533,-0.007 0.712,-0.019 1.156,-0.064 2.029,-0.387 2.619,-0.971 0.322,-0.312 0.553,-0.663 0.708,-1.056 0.464,-1.15 0.225,-2.536 -0.654,-3.565 -0.534,-0.305 -1.117,-0.472 -1.694,-0.502 m -2.391,8.268 c -0.078,0.138 -0.133,0.285 -0.185,0.437 -0.129,0.315 -0.193,0.658 -0.193,1.026 l 0.002,2.036 -10e-4,1.218 h 1.886 c 0.371,0 0.776,-0.024 1.213,-0.076 0.266,-0.03 0.528,-0.092 0.785,-0.185 0.539,-0.19 1.027,-0.528 1.412,-1.002 1.066,-1.312 0.968,-3.257 -0.145,-4.618 -1.494,-0.896 -3.366,-0.658 -4.432,0.654 -0.132,0.161 -0.249,0.332 -0.342,0.51 m 32.657,-4.653 0.006,-0.051 c 0.04,-0.276 0.149,-0.547 0.333,-0.775 0.176,-0.206 0.401,-0.367 0.654,-0.476 0.183,-0.076 0.396,-0.122 0.595,-0.132 l 0.088,-0.004 6.881,7.954 v -4.581 c 0,-0.396 -0.004,-0.771 -0.015,-1.127 -0.005,-0.184 -0.019,-0.645 -0.041,-1.084 -0.022,-0.462 -0.055,-0.844 -0.083,-0.913 L 81.008,37.44 h 1.219 l -0.121,0.257 c -0.004,0.016 -0.006,0.037 -0.009,0.059 -0.008,0.049 -0.016,0.111 -0.021,0.185 -0.014,0.152 -0.024,0.345 -0.035,0.546 -0.02,0.407 -0.033,0.847 -0.045,1.05 -0.02,0.397 -0.039,0.825 -0.06,1.281 -0.021,0.427 -0.039,0.934 -0.06,1.52 -0.01,0.573 -0.016,1.193 -0.016,1.856 v 0.953 1.074 c 0.01,0.356 0.016,0.715 0.016,1.071 v 0.971 c 0,0.081 -0.031,0.161 -0.098,0.218 -0.068,0.074 -0.16,0.095 -0.236,0.095 -0.154,0 -0.293,-0.096 -0.404,-0.206 -0.854,-0.974 -1.639,-1.873 -2.341,-2.688 -0.704,-0.815 -1.377,-1.59 -2.021,-2.325 -0.634,-0.745 -1.257,-1.471 -1.869,-2.176 -0.517,-0.594 -1.059,-1.206 -1.625,-1.836 v 5.817 c 0,0.396 0.005,0.77 0.014,1.125 0.005,0.184 0.02,0.645 0.041,1.084 0.024,0.462 0.056,0.845 0.083,0.914 l 0.094,0.243 h -1.22 l 0.122,-0.256 c 0.003,-0.014 0.007,-0.037 0.01,-0.057 0.006,-0.051 0.013,-0.113 0.019,-0.187 0.014,-0.151 0.026,-0.345 0.036,-0.547 0.02,-0.406 0.034,-0.847 0.044,-1.05 0.02,-0.397 0.044,-0.822 0.064,-1.279 0.022,-0.425 0.033,-0.926 0.043,-1.5 0.01,-0.586 0.015,-1.21 0.015,-1.875 v -0.716 l 0.002,-0.482 -0.005,-1.253 c 0.005,-0.15 0.02,-0.304 0.039,-0.452 m 23.346,7.657 c 0.295,0.437 0.651,0.785 1.073,1.056 0.251,0.178 0.515,0.336 0.79,0.475 0.574,0.268 1.186,0.444 1.816,0.432 0.066,-0.003 0.133,-0.008 0.197,-0.014 -0.393,0.076 -0.797,0.114 -1.216,0.114 -0.782,0 -1.528,-0.134 -2.233,-0.399 -0.7,-0.274 -1.319,-0.66 -1.848,-1.152 -0.529,-0.503 -0.949,-1.098 -1.26,-1.783 -0.301,-0.698 -0.451,-1.461 -0.451,-2.287 0,-0.875 0.159,-1.664 0.482,-2.365 0.32,-0.704 0.75,-1.3 1.291,-1.784 0.55,-0.492 1.188,-0.866 1.91,-1.122 0.734,-0.265 1.502,-0.396 2.305,-0.396 0.875,0 1.662,0.152 2.361,0.461 0.703,0.307 1.3,0.722 1.787,1.247 0.489,0.514 0.862,1.107 1.121,1.783 0.26,0.676 0.389,1.382 0.389,2.116 0,0.816 -0.156,1.575 -0.467,2.274 -0.311,0.695 -0.733,1.298 -1.274,1.811 -0.528,0.514 -1.151,0.907 -1.865,1.184 -0.071,0.029 -0.146,0.056 -0.219,0.082 -0.54,0.039 -1.074,-0.073 -1.585,-0.249 0.439,-0.051 0.828,-0.194 1.164,-0.426 0.451,-0.304 0.826,-0.694 1.127,-1.172 0.302,-0.49 0.527,-1.041 0.674,-1.65 0.156,-0.613 0.236,-1.227 0.236,-1.839 0,-0.591 -0.08,-1.189 -0.236,-1.792 -0.146,-0.6 -0.378,-1.142 -0.689,-1.62 -0.297,-0.488 -0.676,-0.879 -1.125,-1.172 -0.44,-0.297 -0.965,-0.449 -1.578,-0.449 -0.625,0 -1.16,0.152 -1.61,0.449 -0.451,0.295 -0.826,0.679 -1.124,1.155 -0.292,0.48 -0.512,1.028 -0.658,1.648 -0.139,0.615 -0.205,1.237 -0.205,1.871 0,0.662 0.077,1.298 0.234,1.91 0.159,0.609 0.386,1.143 0.686,1.603 m -33.594,0 c 0.295,0.437 0.652,0.785 1.074,1.056 0.251,0.178 0.513,0.336 0.789,0.475 0.574,0.268 1.187,0.444 1.818,0.432 0.066,-0.003 0.131,-0.008 0.197,-0.014 -0.393,0.076 -0.798,0.114 -1.216,0.114 -0.784,0 -1.529,-0.134 -2.232,-0.399 -0.703,-0.274 -1.321,-0.66 -1.851,-1.152 -0.527,-0.503 -0.949,-1.098 -1.259,-1.783 -0.301,-0.698 -0.451,-1.461 -0.451,-2.287 0,-0.875 0.16,-1.664 0.482,-2.365 0.321,-0.704 0.751,-1.3 1.293,-1.784 0.55,-0.492 1.186,-0.866 1.91,-1.122 0.733,-0.265 1.5,-0.396 2.303,-0.396 0.876,0 1.663,0.152 2.361,0.461 0.704,0.307 1.299,0.722 1.79,1.247 0.488,0.514 0.86,1.107 1.119,1.783 0.259,0.676 0.388,1.382 0.388,2.116 0,0.816 -0.155,1.575 -0.466,2.274 -0.311,0.695 -0.735,1.298 -1.274,1.811 -0.529,0.514 -1.151,0.907 -1.865,1.184 -0.072,0.029 -0.146,0.056 -0.221,0.082 -0.539,0.039 -1.073,-0.073 -1.585,-0.249 0.442,-0.051 0.829,-0.194 1.166,-0.426 0.451,-0.304 0.827,-0.694 1.126,-1.172 0.303,-0.49 0.526,-1.041 0.673,-1.65 0.159,-0.613 0.238,-1.227 0.238,-1.839 0,-0.591 -0.079,-1.189 -0.237,-1.792 -0.147,-0.6 -0.377,-1.142 -0.687,-1.62 -0.3,-0.488 -0.677,-0.879 -1.127,-1.172 -0.441,-0.297 -0.966,-0.449 -1.578,-0.449 -0.625,0 -1.159,0.152 -1.611,0.449 -0.45,0.295 -0.825,0.679 -1.126,1.155 -0.29,0.48 -0.509,1.028 -0.657,1.648 -0.137,0.615 -0.206,1.237 -0.206,1.871 0,0.662 0.079,1.298 0.236,1.91 0.157,0.609 0.387,1.143 0.686,1.603 m 43.865,-7.662 0.007,-0.051 c 0.041,-0.277 0.15,-0.547 0.334,-0.776 0.175,-0.207 0.4,-0.366 0.652,-0.475 0.185,-0.076 0.397,-0.122 0.596,-0.132 l 0.089,-0.004 6.882,7.953 v -4.579 c 0,-0.396 -0.006,-0.773 -0.015,-1.128 -0.006,-0.185 -0.019,-0.645 -0.041,-1.084 -0.024,-0.463 -0.056,-0.844 -0.083,-0.913 l -0.094,-0.245 h 1.219 l -0.121,0.256 c -0.004,0.015 -0.006,0.038 -0.01,0.059 -0.008,0.05 -0.014,0.112 -0.02,0.186 -0.014,0.152 -0.025,0.345 -0.035,0.546 -0.021,0.407 -0.035,0.846 -0.045,1.051 -0.021,0.397 -0.039,0.824 -0.061,1.28 -0.02,0.427 -0.039,0.933 -0.061,1.519 -0.01,0.574 -0.016,1.193 -0.016,1.857 v 0.954 1.073 c 0.012,0.356 0.016,0.715 0.016,1.072 v 0.97 c 0,0.081 -0.029,0.16 -0.098,0.218 -0.066,0.074 -0.158,0.095 -0.234,0.095 -0.156,0 -0.293,-0.096 -0.406,-0.206 -0.854,-0.974 -1.638,-1.872 -2.341,-2.688 -0.703,-0.816 -1.377,-1.59 -2.021,-2.325 -0.632,-0.745 -1.256,-1.471 -1.867,-2.176 -0.518,-0.595 -1.058,-1.206 -1.625,-1.836 v 5.817 c 0,0.396 0.004,0.77 0.014,1.125 0.005,0.184 0.02,0.644 0.041,1.084 0.023,0.462 0.056,0.843 0.082,0.913 l 0.096,0.244 h -1.221 l 0.121,-0.255 c 0.004,-0.015 0.008,-0.038 0.011,-0.06 0.007,-0.049 0.014,-0.112 0.02,-0.184 0.015,-0.153 0.026,-0.346 0.035,-0.547 0.021,-0.407 0.035,-0.847 0.044,-1.051 0.021,-0.397 0.045,-0.822 0.064,-1.279 0.021,-0.426 0.033,-0.926 0.043,-1.5 0.009,-0.586 0.015,-1.21 0.015,-1.875 v -0.716 l 0.002,-0.482 -0.005,-1.254 c 0.006,-0.15 0.018,-0.302 0.037,-0.451 m -22.333,6.322 h 0.467 l 0.041,0.122 c 0.088,0.259 0.198,0.512 0.335,0.761 0.136,0.241 0.284,0.474 0.438,0.695 0.164,0.211 0.334,0.396 0.506,0.557 0.182,0.16 0.35,0.279 0.504,0.36 0.156,0.082 0.373,0.168 0.648,0.255 0.266,0.085 0.52,0.126 0.758,0.126 0.709,0 1.267,-0.188 1.689,-0.552 0.418,-0.369 0.631,-0.863 0.631,-1.504 0,-0.259 -0.041,-0.478 -0.121,-0.659 -0.08,-0.188 -0.197,-0.349 -0.338,-0.48 -0.135,-0.144 -0.304,-0.27 -0.498,-0.371 -0.205,-0.105 -0.424,-0.201 -0.658,-0.288 -0.237,-0.089 -0.447,-0.162 -0.627,-0.222 -0.18,-0.06 -0.356,-0.117 -0.516,-0.165 -0.146,-0.057 -0.314,-0.116 -0.479,-0.163 -0.162,-0.06 -0.365,-0.137 -0.596,-0.226 -0.277,-0.105 -0.543,-0.248 -0.796,-0.425 -0.254,-0.188 -0.479,-0.406 -0.671,-0.648 -0.191,-0.25 -0.346,-0.524 -0.463,-0.818 -0.118,-0.311 -0.177,-0.636 -0.177,-0.975 0,-0.557 0.099,-1.049 0.305,-1.466 0.213,-0.41 0.496,-0.755 0.849,-1.03 0.353,-0.273 0.758,-0.473 1.211,-0.598 0.457,-0.134 0.938,-0.201 1.436,-0.201 0.462,0 0.865,0.041 1.205,0.125 0.326,0.07 0.598,0.153 0.814,0.249 0.211,0.089 0.379,0.178 0.498,0.271 0.131,0.083 0.6,0.423 0.84,0.729 l 0.039,0.048 -0.004,1.873 h -0.475 l -0.044,-0.118 c -0.117,-0.317 -0.269,-0.632 -0.455,-0.939 -0.183,-0.315 -0.396,-0.592 -0.635,-0.829 -0.237,-0.244 -0.509,-0.441 -0.812,-0.591 -0.293,-0.146 -0.621,-0.22 -0.988,-0.22 -0.293,0 -0.571,0.042 -0.834,0.125 -0.248,0.082 -0.469,0.205 -0.66,0.368 -0.18,0.16 -0.324,0.361 -0.434,0.608 -0.1,0.23 -0.152,0.503 -0.152,0.82 0,0.487 0.148,0.86 0.431,1.14 0.3,0.296 0.694,0.538 1.187,0.719 0.199,0.079 0.385,0.148 0.555,0.207 0.179,0.06 0.353,0.118 0.521,0.177 0.174,0.051 0.346,0.106 0.518,0.166 0.183,0.061 0.369,0.124 0.561,0.195 0.708,0.257 1.268,0.637 1.663,1.146 0.412,0.505 0.612,1.132 0.612,1.868 0,0.503 -0.106,0.959 -0.323,1.366 -0.204,0.401 -0.493,0.743 -0.864,1.027 -0.363,0.285 -0.798,0.494 -1.3,0.628 -0.5,0.133 -1.044,0.199 -1.629,0.199 -0.506,0 -0.937,-0.031 -1.299,-0.093 -0.363,-0.061 -0.666,-0.135 -0.906,-0.217 -0.233,-0.091 -0.424,-0.174 -0.556,-0.251 -0.199,-0.113 -0.588,-0.354 -0.85,-0.559 L 84.001,47.46 83.967,45.191 z m 36.129,-8.79 c 0,0.23 -0.043,0.443 -0.131,0.64 -0.088,0.197 -0.207,0.366 -0.359,0.512 -0.148,0.144 -0.324,0.255 -0.525,0.333 -0.199,0.078 -0.41,0.117 -0.635,0.117 -0.221,0 -0.432,-0.037 -0.631,-0.113 -0.197,-0.078 -0.373,-0.187 -0.521,-0.325 -0.148,-0.14 -0.266,-0.308 -0.355,-0.501 -0.084,-0.197 -0.125,-0.412 -0.125,-0.646 0,-0.247 0.043,-0.47 0.135,-0.666 0.092,-0.199 0.213,-0.366 0.363,-0.503 0.154,-0.138 0.334,-0.243 0.539,-0.315 0.207,-0.075 0.426,-0.112 0.652,-0.112 0.248,0 0.471,0.043 0.666,0.13 0.199,0.086 0.367,0.203 0.504,0.351 0.137,0.145 0.242,0.312 0.316,0.503 0.072,0.187 0.107,0.386 0.107,0.595 m -1.26,-0.378 c 0.012,-0.044 0.018,-0.09 0.018,-0.138 0,-0.088 -0.021,-0.165 -0.064,-0.232 -0.043,-0.068 -0.107,-0.122 -0.193,-0.163 -0.043,-0.019 -0.09,-0.033 -0.137,-0.042 -0.047,-0.009 -0.098,-0.014 -0.15,-0.014 -0.039,0 -0.07,0.001 -0.094,0.003 l -0.035,0.012 -0.006,0.027 c 0,0.014 0,0.031 -0.002,0.054 0,0.023 -0.002,0.057 -0.004,0.1 l -0.004,0.22 v 0.237 0.201 0.076 c 0.064,0 0.125,-0.004 0.182,-0.008 0.064,-0.007 0.127,-0.021 0.188,-0.041 0.059,-0.018 0.107,-0.042 0.146,-0.071 0.041,-0.028 0.074,-0.062 0.098,-0.099 0.026,-0.038 0.044,-0.079 0.057,-0.122 m -1.035,-0.426 c 0.008,-0.061 0.029,-0.11 0.064,-0.152 0.031,-0.038 0.072,-0.069 0.121,-0.089 0.033,-0.014 0.068,-0.023 0.105,-0.024 h 0.039 0.197 c 0.129,0 0.24,0.005 0.34,0.012 0.1,0.008 0.195,0.035 0.279,0.079 0.088,0.046 0.156,0.107 0.213,0.186 0.055,0.079 0.08,0.178 0.08,0.294 0,0.073 -0.014,0.139 -0.041,0.2 -0.027,0.057 -0.062,0.107 -0.109,0.154 -0.043,0.043 -0.094,0.08 -0.154,0.11 -0.043,0.022 -0.086,0.043 -0.131,0.06 0.023,0.02 0.037,0.033 0.055,0.051 0.031,0.033 0.062,0.069 0.09,0.11 l 0.158,0.229 0.156,0.218 c 0.033,0.045 0.084,0.108 0.141,0.166 0.031,-0.079 0.059,-0.162 0.078,-0.25 0.047,-0.182 0.07,-0.363 0.07,-0.546 0,-0.176 -0.023,-0.353 -0.07,-0.533 -0.043,-0.178 -0.111,-0.339 -0.205,-0.483 -0.09,-0.147 -0.203,-0.267 -0.342,-0.355 -0.137,-0.093 -0.299,-0.139 -0.486,-0.139 -0.189,0 -0.355,0.046 -0.494,0.139 -0.137,0.089 -0.252,0.207 -0.342,0.352 -0.088,0.145 -0.154,0.309 -0.197,0.492 -0.041,0.183 -0.061,0.367 -0.061,0.556 0,0.194 0.023,0.385 0.07,0.566 0.047,0.183 0.115,0.343 0.205,0.48 0.094,0.139 0.207,0.25 0.346,0.333 0.141,0.085 0.303,0.126 0.486,0.126 0.183,0 0.344,-0.046 0.477,-0.138 0.139,-0.094 0.252,-0.211 0.342,-0.355 l 0.021,-0.036 h -0.221 l -0.047,-0.046 -0.025,-0.032 c -0.01,-0.011 -0.023,-0.028 -0.041,-0.05 -0.012,-0.021 -0.033,-0.055 -0.062,-0.098 l -0.098,-0.141 c -0.025,-0.042 -0.053,-0.085 -0.082,-0.125 -0.027,-0.041 -0.059,-0.08 -0.092,-0.12 -0.031,-0.043 -0.07,-0.091 -0.115,-0.143 -0.035,-0.042 -0.076,-0.08 -0.121,-0.117 -0.039,-0.033 -0.08,-0.055 -0.125,-0.062 -0.033,-0.007 -0.061,-0.011 -0.076,-0.011 l -0.033,-0.001 v 0.283 c 0,0.089 0,0.164 0.002,0.227 l 0.002,0.047 0.004,0.106 c 0.002,0.052 0.004,0.108 0.008,0.155 0,0.024 0.002,0.045 0.004,0.061 l 0.002,0.019 0.023,0.048 h -0.463 l 0.021,-0.043 0.004,-0.047 c 0.002,-0.028 0.006,-0.063 0.008,-0.102 0.004,-0.077 0.006,-0.159 0.008,-0.197 0.002,-0.026 0.002,-0.052 0.002,-0.077 v -0.107 c 0.002,-0.044 0.002,-0.093 0.002,-0.145 0.002,-0.054 0.004,-0.109 0.004,-0.165 V 36.366 35.82 35.684 c 0,-0.03 0.004,-0.059 0.006,-0.087 m -62.233,7.69 c 0.092,0.072 0.182,0.154 0.27,0.246 0.166,0.175 0.329,0.371 0.483,0.586 l 0.846,1.225 0.828,1.16 c 0.367,0.512 1.204,1.421 1.671,1.69 l 0.582,0.335 -3.245,0.002 -0.257,-0.253 -0.141,-0.171 C 56.553,48.046 56.481,47.951 56.397,47.838 56.328,47.722 56.21,47.544 56.052,47.319 l -0.515,-0.75 c -0.139,-0.226 -0.285,-0.45 -0.434,-0.666 -0.148,-0.214 -0.313,-0.433 -0.492,-0.646 -0.168,-0.226 -0.373,-0.479 -0.612,-0.753 -0.194,-0.222 -0.409,-0.429 -0.643,-0.621 -0.211,-0.182 -0.431,-0.291 -0.657,-0.334 -0.188,-0.039 -0.32,-0.057 -0.401,-0.057 -0.048,0 -0.102,-10e-4 -0.164,-0.004 v 1.493 c 0,0.476 0.005,0.876 0.014,1.203 l 0.009,0.252 0.022,0.566 c 0.01,0.271 0.023,0.577 0.04,0.829 0.008,0.124 0.015,0.234 0.025,0.32 0.005,0.039 0.009,0.072 0.015,0.1 10e-4,0.01 10e-4,0.017 0.003,0.021 l 0.121,0.256 h -2.524 l 0.121,-0.256 c 0.003,-0.014 0.007,-0.037 0.01,-0.057 0.007,-0.051 0.013,-0.113 0.02,-0.186 0.013,-0.152 0.024,-0.345 0.033,-0.546 0.019,-0.407 0.033,-0.848 0.043,-1.052 0.007,-0.139 0.01,-0.275 0.01,-0.407 l 0.001,-0.57 c 0.009,-0.235 0.014,-0.499 0.014,-0.773 0.01,-0.287 0.015,-0.581 0.015,-0.877 V 42.94 40.034 l 0.001,-0.726 c 0.003,-0.151 0.016,-0.303 0.034,-0.452 l 0.007,-0.051 c 0.041,-0.277 0.15,-0.546 0.334,-0.775 0.176,-0.207 0.401,-0.368 0.654,-0.476 0.18,-0.074 0.38,-0.123 0.583,-0.133 l 0.201,0.003 h 1.052 c 0.679,0 1.28,0.02 1.807,0.06 0.547,0.042 1.05,0.182 1.504,0.424 0.469,0.241 0.848,0.574 1.136,0.997 0.296,0.424 0.438,0.954 0.438,1.575 0,0.392 -0.075,0.751 -0.228,1.075 -0.14,0.308 -0.333,0.583 -0.578,0.827 -0.236,0.231 -0.512,0.431 -0.828,0.597 -0.217,0.117 -0.442,0.219 -0.675,0.308"
   clip-path="url(#SVGID_2_)" />

</g>
  </g>
</svg>
