<?xml version="1.0" encoding="UTF-8" standalone="no"?>
<!-- Created with Inkscape (http://www.inkscape.org/) -->

<svg
   xmlns:dc="http://purl.org/dc/elements/1.1/"
   xmlns:cc="http://creativecommons.org/ns#"
   xmlns:rdf="http://www.w3.org/1999/02/22-rdf-syntax-ns#"
   xmlns:svg="http://www.w3.org/2000/svg"
   xmlns="http://www.w3.org/2000/svg"
   xmlns:sodipodi="http://sodipodi.sourceforge.net/DTD/sodipodi-0.dtd"
   xmlns:inkscape="http://www.inkscape.org/namespaces/inkscape"
   width="400"
   height="250"
   id="svg2"
   version="1.1"
   viewBox="0 0 400 250"
   inkscape:version="0.48.4 r9939"
   sodipodi:docname="herb.svg"
   inkscape:export-filename="D:\Testowane projekty\Merix_nowa Strona\Logo Home\akumulator.png"
   inkscape:export-xdpi="90"
   inkscape:export-ydpi="90">
  <defs
     id="defs4">
    <clipPath
       clipPathUnits="userSpaceOnUse"
       id="clipPath2999">
      <path
         inkscape:connector-curvature="0"
         d="m 0,266.156 1195.826,0 L 1195.826,0 0,0 0,266.156 z"
         id="path3001" />
    </clipPath>
    <clipPath
       clipPathUnits="userSpaceOnUse"
       id="clipPath2999-8">
      <path
         inkscape:connector-curvature="0"
         d="m 0,266.156 1195.826,0 L 1195.826,0 0,0 0,266.156 z"
         id="path3001-2" />
    </clipPath>
  </defs>
  <sodipodi:namedview
     id="base"
     pagecolor="#ffffff"
     bordercolor="#666666"
     borderopacity="1.0"
     inkscape:pageopacity="0.0"
     inkscape:pageshadow="2"
     inkscape:zoom="1.4"
     inkscape:cx="198.14197"
     inkscape:cy="67.331396"
     inkscape:document-units="px"
     inkscape:current-layer="layer1"
     showgrid="false"
     inkscape:window-width="1288"
     inkscape:window-height="829"
     inkscape:window-x="100"
     inkscape:window-y="100"
     inkscape:window-maximized="0" />
  <metadata
     id="metadata7">
    <rdf:RDF>
      <cc:Work
         rdf:about="">
        <dc:format>image/svg+xml</dc:format>
        <dc:type
           rdf:resource="http://purl.org/dc/dcmitype/StillImage" />
        <dc:title></dc:title>
      </cc:Work>
    </rdf:RDF>
  </metadata>
  <g
     inkscape:label="Layer 1"
     inkscape:groupmode="layer"
     id="layer1"
     transform="translate(0,-802.36217)">
    <g
       id="g3196"
       transform="matrix(0.69376341,0,0,0.69376341,-1.1362763,884.61399)"
       style="fill:#ffffff">
      <path
         inkscape:connector-curvature="0"
         style="fill:#ffffff"
         id="path3417"
         d="m 462.3915,87.01976 -38.27166,-57.285205 -0.009,0.0093 c -0.40247,-0.600607 -0.92413,-1.131556 -1.56343,-1.557244 -0.94426,-0.631566 -2.00925,-0.934965 -3.0727,-0.948897 -0.0124,0 -0.0341,-0.0031 -0.0557,-0.0031 -0.11455,0 -0.23065,0.0062 -0.34675,0.01703 -0.0681,0.0046 -0.14241,0.0046 -0.21052,0.01084 -0.0712,0.0062 -0.13467,0.01548 -0.19968,0.03096 -0.11765,0.01393 -0.23529,0.02786 -0.35449,0.04953 -0.0124,0.0031 -0.0263,0.0093 -0.0418,0.01084 -0.60061,0.123836 -1.18419,0.352934 -1.73681,0.678005 -0.0774,0.04799 -0.16408,0.09288 -0.24148,0.145507 -0.009,0.0062 -0.0201,0.0093 -0.0279,0.01238 -0.082,0.05882 -0.16099,0.123837 -0.24148,0.181111 -0.0604,0.04799 -0.12229,0.08514 -0.18111,0.13622 -0.12694,0.102165 -0.24922,0.216714 -0.36377,0.325071 -0.0124,0.01703 -0.0263,0.02632 -0.0387,0.0356 -0.27554,0.270892 -0.52321,0.569648 -0.72909,0.877691 l -0.0139,-0.0093 -37.48375,56.537551 c -0.3452,0.39627 -0.64395,0.84054 -0.87924,1.31421 -0.37461,0.77243 -0.58977,1.63619 -0.58977,2.54794 0,3.22129 2.60985,5.82805 5.8265,5.82805 2.10058,0 3.93336,-1.11298 4.95811,-2.78323 h 0.006 l 32.87858,-50.07173 33.32285,50.01291 0.46439,0.69503 c 0.93496,1.19348 2.32812,2.02009 3.91632,2.18417 h 1.20277 c 2.88074,-0.29876 5.12528,-2.73369 5.12528,-5.69183 0,-1.13775 -0.3452,-2.1981 -0.91175,-3.09437 l -0.13622,-0.19504 z m 0,5.09123 0.13622,0.19194 -0.13622,-0.19194 z" />
      <path
         inkscape:connector-curvature="0"
         style="fill:#ffffff"
         id="path3419"
         d="m 567.14942,36.709644 c -7.07416,-6.287796 -16.76127,-9.475038 -28.79817,-9.475038 h -19.26432 v 0.02167 h -8.77071 c -3.12378,0 -5.65314,2.515428 -5.65314,5.634559 h -0.0217 v 56.167585 1.93185 c 0.40247,2.3436 2.24763,4.19186 4.59588,4.59743 h 1.93495 1.10988 3.71509 24.52737 c 10.27688,0 19.02128,-3.04329 26.0072,-9.04781 7.50604,-6.461167 11.30937,-14.663785 11.30937,-24.39114 -0.002,-10.578731 -3.5959,-19.138927 -10.69173,-25.439108 m -9.37907,41.231354 c -4.22901,4.151622 -9.71187,6.252194 -16.29842,6.252194 H 515.99721 V 38.608986 h 3.08972 v 0.01858 h 20.20702 c 7.41007,0 13.47341,2.156302 18.01821,6.402346 4.52932,4.236755 6.8172,9.903821 6.8172,16.844856 0,6.51999 -2.13928,11.927 -6.35901,16.066234" />
      <path
         inkscape:connector-curvature="0"
         style="fill:#ffffff"
         id="path3421"
         d="m 7.6732584,27.234606 c -3.1206791,0 -5.6500391,2.532456 -5.6500391,5.653135 H 2 v 38.565774 4.289386 14.295369 h 0.023219 c 0,3.12223 2.52936,5.65314 5.6515871,5.65314 3.1237749,0 5.6531349,-2.53246 5.6531349,-5.65314 h 0.02477 V 71.453515 32.887741 h -0.02477 c 0,-3.120679 -2.52936,-5.653135 -5.6546829,-5.653135" />
      <path
         inkscape:connector-curvature="0"
         style="fill:#ffffff"
         id="path3423"
         d="m 232.85131,84.36192 v -0.0263 H 187.08754 V 71.453515 32.887741 h -0.0248 c 0,-3.123775 -2.52936,-5.653135 -5.65313,-5.653135 -3.12378,0 -5.65314,2.530908 -5.65314,5.653135 h -0.0217 V 71.453515 90.03827 h 0.0217 c 0,3.12223 2.53246,5.65159 5.65314,5.65314 h 51.44167 v -0.0279 c 2.83586,0 5.13457,-2.52472 5.13457,-5.65004 0,-3.12223 -2.29871,-5.65159 -5.13457,-5.65159" />
      <path
         inkscape:connector-curvature="0"
         style="fill:#ffffff"
         id="path3425"
         d="m 125.22348,27.234606 c -3.11758,0 -5.65004,2.532456 -5.65004,5.653135 h -0.0232 v 38.565774 4.891541 L 72.693599,29.491526 c -1.032487,-1.368393 -2.662484,-2.25692 -4.507648,-2.25692 -3.119131,0 -5.651587,2.532456 -5.651587,5.653135 h -0.02477 V 71.453515 90.03827 h 0.02477 c 0,3.12223 2.532456,5.65314 5.651587,5.65314 3.123775,0 5.653135,-2.53246 5.653135,-5.65314 h 0.02477 V 71.453515 46.710988 l 47.065594,47.071792 0.0341,-0.0403 c 1.03713,1.19348 2.56187,1.95043 4.26307,1.95043 3.12223,0 5.65468,-2.53246 5.65468,-5.65314 h 0.0232 V 71.453515 32.887741 h -0.0263 c 0,-3.120679 -2.52782,-5.653135 -5.65469,-5.653135" />
      <path
         inkscape:connector-curvature="0"
         style="fill:#ffffff"
         id="path3427"
         d="m 331.52112,27.262469 v -0.02786 h -53.0918 -0.005 c -3.11913,0 -5.65159,2.532456 -5.65159,5.653135 h -0.0263 v 49.098066 8.05246 h 0.031 c 0,3.12223 2.52781,5.65159 5.65158,5.65314 h 51.43239 v -0.0294 c 2.84359,0 5.14076,-2.52317 5.14076,-5.64849 0,-3.12533 -2.29717,-5.65159 -5.14076,-5.65159 v -0.0263 H 284.10258 V 71.453515 67.161033 h 31.54115 v -0.02631 c 2.85908,0 5.18101,-2.530908 5.18101,-5.651587 0,-3.120679 -2.32193,-5.651587 -5.18101,-5.651587 v -0.02941 H 284.10258 V 38.587315 h 47.41854 v -0.02167 c 2.85907,0 5.1872,-2.530908 5.1872,-5.651587 0,-3.125323 -2.32813,-5.651588 -5.1872,-5.651588" />
    </g>
  </g>
</svg>
