<?xml version="1.0" encoding="UTF-8" standalone="no"?>
<!-- Created with Inkscape (http://www.inkscape.org/) -->

<svg
   xmlns:dc="http://purl.org/dc/elements/1.1/"
   xmlns:cc="http://creativecommons.org/ns#"
   xmlns:rdf="http://www.w3.org/1999/02/22-rdf-syntax-ns#"
   xmlns:svg="http://www.w3.org/2000/svg"
   xmlns="http://www.w3.org/2000/svg"
   xmlns:sodipodi="http://sodipodi.sourceforge.net/DTD/sodipodi-0.dtd"
   xmlns:inkscape="http://www.inkscape.org/namespaces/inkscape"
   width="400"
   height="250"
   id="svg2"
   version="1.1"
   viewBox="0 0 400 250"
   inkscape:version="0.48.4 r9939"
   sodipodi:docname="nokaut.svg"
   inkscape:export-filename="D:\Testowane projekty\Merix_nowa Strona\Logo Home\akumulator.png"
   inkscape:export-xdpi="90"
   inkscape:export-ydpi="90">
  <defs
     id="defs4">
    <clipPath
       clipPathUnits="userSpaceOnUse"
       id="clipPath2999">
      <path
         inkscape:connector-curvature="0"
         d="m 0,266.156 1195.826,0 L 1195.826,0 0,0 0,266.156 z"
         id="path3001" />
    </clipPath>
    <clipPath
       clipPathUnits="userSpaceOnUse"
       id="clipPath2999-8">
      <path
         inkscape:connector-curvature="0"
         d="m 0,266.156 1195.826,0 L 1195.826,0 0,0 0,266.156 z"
         id="path3001-2" />
    </clipPath>
    <clipPath
       clipPathUnits="userSpaceOnUse"
       id="clipPath2999-1">
      <path
         inkscape:connector-curvature="0"
         d="m 0,595.275 841.89,0 L 841.89,0 0,0 0,595.275 z"
         id="path3001-1" />
    </clipPath>
    <clipPath
       clipPathUnits="userSpaceOnUse"
       id="clipPath2999-6">
      <path
         id="path3245"
         d="m0,34.753,76.528,0v-34.753h-76.528v34.753z" />
    </clipPath>
    <clipPath
       id="clipPath2999-6-8"
       clipPathUnits="userSpaceOnUse">
      <path
         d="m0,34.753,76.528,0v-34.753h-76.528v34.753z"
         id="path3245-5" />
    </clipPath>
    <clipPath
       id="clipPath2999-1-1"
       clipPathUnits="userSpaceOnUse">
      <path
         id="path3001-1-6"
         d="m 0,595.275 841.89,0 L 841.89,0 0,0 0,595.275 z"
         inkscape:connector-curvature="0" />
    </clipPath>
    <clipPath
       id="clipPath2999-8-2"
       clipPathUnits="userSpaceOnUse">
      <path
         id="path3001-2-2"
         d="m 0,266.156 1195.826,0 L 1195.826,0 0,0 0,266.156 z"
         inkscape:connector-curvature="0" />
    </clipPath>
    <clipPath
       id="clipPath2999-2"
       clipPathUnits="userSpaceOnUse">
      <path
         id="path3001-3"
         d="m 0,266.156 1195.826,0 L 1195.826,0 0,0 0,266.156 z"
         inkscape:connector-curvature="0" />
    </clipPath>
    <clipPath
       clipPathUnits="userSpaceOnUse"
       id="clipPath2999-27">
      <path
         inkscape:connector-curvature="0"
         d="m 0,595.275 841.89,0 L 841.89,0 0,0 0,595.275 z"
         id="path3001-9" />
    </clipPath>
    <clipPath
       clipPathUnits="userSpaceOnUse"
       id="clipPath2999-12">
      <path
         id="path3361"
         d="m0,34.753,76.528,0v-34.753h-76.528v34.753z" />
    </clipPath>
    <clipPath
       clipPathUnits="userSpaceOnUse"
       id="clipPath3136">
      <path
         inkscape:connector-curvature="0"
         d="m 0,91.623 463.665,0 L 463.665,0 0,0 0,91.623 z"
         id="path3138" />
    </clipPath>
    <clipPath
       clipPathUnits="userSpaceOnUse"
       id="clipPath2999-4">
      <path
         inkscape:connector-curvature="0"
         d="m 0,266.156 1195.826,0 L 1195.826,0 0,0 0,266.156 z"
         id="path3001-11" />
    </clipPath>
  </defs>
  <sodipodi:namedview
     id="base"
     pagecolor="#ffffff"
     bordercolor="#666666"
     borderopacity="1.0"
     inkscape:pageopacity="0.0"
     inkscape:pageshadow="2"
     inkscape:zoom="0.7"
     inkscape:cx="132.18097"
     inkscape:cy="112.65076"
     inkscape:document-units="px"
     inkscape:current-layer="layer1"
     showgrid="false"
     inkscape:window-width="1288"
     inkscape:window-height="829"
     inkscape:window-x="100"
     inkscape:window-y="100"
     inkscape:window-maximized="0" />
  <metadata
     id="metadata7">
    <rdf:RDF>
      <cc:Work
         rdf:about="">
        <dc:format>image/svg+xml</dc:format>
        <dc:type
           rdf:resource="http://purl.org/dc/dcmitype/StillImage" />
        <dc:title></dc:title>
      </cc:Work>
    </rdf:RDF>
  </metadata>
  <g
     inkscape:label="Layer 1"
     inkscape:groupmode="layer"
     id="layer1"
     transform="translate(0,-802.36217)">
    <g
       transform="matrix(0.78966233,0,0,0.78966233,-3.7590813,510.48955)"
       id="g3091"
       style="fill:#ffffff">
	
	
	
	
	
	
	
	<g
   style="fill:#ffffff"
   transform="matrix(0.73459803,0,0,0.73459803,-67.244625,316.17271)"
   id="g3698">
  <path
     d="m 204.717,239.309 h 30.766 c 17.955,0 29.293,11.076 29.293,28.615 0,19.299 -11.338,29.558 -32.262,29.558 h -11.736 v 39.141 h -16.061 v -97.314 z m 15.925,45.217 h 8.501 c 12.555,0 18.896,-5.667 18.896,-16.602 0,-9.721 -5.803,-15.252 -15.791,-15.252 h -11.606 v 31.854 z"
     id="path3093"
     inkscape:connector-curvature="0"
     style="fill:#ffffff" />
  <path
     d="m 270.033,239.309 h 51.018 v 14.44 h -35.093 v 25.783 h 34.279 v 14.303 h -34.279 v 28.484 h 35.093 v 14.304 h -51.018 v -97.314 z"
     id="path3095"
     inkscape:connector-curvature="0"
     style="fill:#ffffff" />
  <path
     d="m 330.626,235.67 64.787,61.541 c 3.638,3.516 5.803,7.014 8.094,12.821 -0.805,-7.019 -1.216,-10.792 -1.216,-16.057 v -54.666 h 15.931 V 340.808 L 353.706,279.13 c -2.026,-2.03 -6.346,-8.234 -9.853,-13.772 2.161,6.076 2.698,8.501 2.698,11.607 v 59.658 H 330.626 V 235.67 z"
     id="path3097"
     inkscape:connector-curvature="0"
     style="fill:#ffffff" />
  <path
     d="m 431.571,239.309 h 26.32 c 28.747,0 47.917,19.439 47.917,48.323 0,28.338 -17.819,48.991 -48.6,48.991 H 431.57 v -97.314 z m 8.908,89.614 h 15.519 c 25.521,0 40.627,-17.946 40.627,-40.891 0,-24.692 -15.383,-41.027 -38.868,-41.027 H 440.48 v 81.918 z"
     id="path3099"
     inkscape:connector-curvature="0"
     style="fill:#ffffff" />
  <path
     d="m 562.621,237.155 c 28.61,0 50.886,22.269 50.886,50.877 0,28.747 -22.275,51.018 -50.886,51.018 -28.612,0 -50.888,-22.271 -50.888,-51.018 0,-28.609 22.276,-50.877 50.888,-50.877 z m -41.975,50.877 c 0,23.754 18.624,42.924 41.976,42.924 23.351,0 41.837,-19.17 41.837,-42.924 0,-23.753 -18.623,-42.785 -41.837,-42.785 -23.352,0 -41.976,19.032 -41.976,42.785 z"
     id="path3101"
     inkscape:connector-curvature="0"
     style="fill:#ffffff" />
  <path
     d="m 670.182,237.155 c 28.607,0 50.869,22.269 50.869,50.877 0,28.747 -22.262,51.018 -50.869,51.018 -28.625,0 -50.886,-22.271 -50.886,-51.018 0,-28.609 22.261,-50.877 50.886,-50.877 z m -41.979,50.877 c 0,23.754 18.623,42.924 41.979,42.924 23.338,0 41.82,-19.17 41.82,-42.924 0,-23.753 -18.623,-42.785 -41.82,-42.785 -23.356,0 -41.979,19.032 -41.979,42.785 z"
     id="path3103"
     inkscape:connector-curvature="0"
     style="fill:#ffffff" />
  <path
     d="m 731.309,239.309 h 22.805 c 17.141,0 28.61,10.53 28.61,26.321 0,15.25 -10.395,25.238 -27.26,26.049 l 31.852,44.944 h -10.94 l -30.353,-44.27 h -5.938 v 44.27 h -8.776 v -97.314 z m 8.776,46.292 h 9.983 c 14.308,0 23.079,-7.554 23.079,-19.563 0,-11.205 -8.107,-19.168 -19.834,-19.168 h -13.229 v 38.731 z"
     id="path3105"
     inkscape:connector-curvature="0"
     style="fill:#ffffff" />
  <path
     d="m 145.605,237.291 c -20.543,0 -37.79,11.356 -45.985,28.257 l -0.056,0.065 -0.074,0.166 c 0,0 0.074,0.066 0.192,0.171 l 0.013,0.006 34.208,29.514 10.246,-11.858 -23.324,-20.135 c 6.235,-6.636 14.937,-10.805 24.78,-10.805 19.17,0 34.554,15.654 34.554,35.36 0,19.708 -15.383,35.363 -34.554,35.363 -12.165,0 -22.765,-6.24 -28.935,-15.786 H 98.278 c 7.574,18.523 25.708,31.17 47.327,31.17 28.747,0 51.022,-22.136 51.022,-50.747 0,-28.609 -22.275,-50.741 -51.022,-50.741 z"
     id="path3107"
     inkscape:connector-curvature="0"
     style="fill:#ffffff" />
</g>

</g>
  </g>
</svg>
