<?xml version="1.0" encoding="UTF-8" standalone="no"?>
<!-- Created with Inkscape (http://www.inkscape.org/) -->

<svg
   xmlns:dc="http://purl.org/dc/elements/1.1/"
   xmlns:cc="http://creativecommons.org/ns#"
   xmlns:rdf="http://www.w3.org/1999/02/22-rdf-syntax-ns#"
   xmlns:svg="http://www.w3.org/2000/svg"
   xmlns="http://www.w3.org/2000/svg"
   xmlns:sodipodi="http://sodipodi.sourceforge.net/DTD/sodipodi-0.dtd"
   xmlns:inkscape="http://www.inkscape.org/namespaces/inkscape"
   width="400"
   height="250"
   id="svg2"
   version="1.1"
   viewBox="0 0 400 250"
   inkscape:version="0.48.4 r9939"
   sodipodi:docname="opendoor.svg"
   inkscape:export-filename="D:\Testowane projekty\Merix_nowa Strona\Logo Home\akumulator.png"
   inkscape:export-xdpi="90"
   inkscape:export-ydpi="90">
  <defs
     id="defs4">
    <clipPath
       clipPathUnits="userSpaceOnUse"
       id="clipPath2999">
      <path
         inkscape:connector-curvature="0"
         d="m 0,266.156 1195.826,0 L 1195.826,0 0,0 0,266.156 z"
         id="path3001" />
    </clipPath>
    <clipPath
       clipPathUnits="userSpaceOnUse"
       id="clipPath2999-8">
      <path
         inkscape:connector-curvature="0"
         d="m 0,266.156 1195.826,0 L 1195.826,0 0,0 0,266.156 z"
         id="path3001-2" />
    </clipPath>
    <clipPath
       clipPathUnits="userSpaceOnUse"
       id="clipPath2999-1">
      <path
         inkscape:connector-curvature="0"
         d="m 0,595.275 841.89,0 L 841.89,0 0,0 0,595.275 z"
         id="path3001-1" />
    </clipPath>
    <clipPath
       clipPathUnits="userSpaceOnUse"
       id="clipPath2999-6">
      <path
         id="path3245"
         d="m0,34.753,76.528,0v-34.753h-76.528v34.753z" />
    </clipPath>
    <clipPath
       id="clipPath2999-6-8"
       clipPathUnits="userSpaceOnUse">
      <path
         d="m0,34.753,76.528,0v-34.753h-76.528v34.753z"
         id="path3245-5" />
    </clipPath>
    <clipPath
       id="clipPath2999-1-1"
       clipPathUnits="userSpaceOnUse">
      <path
         id="path3001-1-6"
         d="m 0,595.275 841.89,0 L 841.89,0 0,0 0,595.275 z"
         inkscape:connector-curvature="0" />
    </clipPath>
    <clipPath
       id="clipPath2999-8-2"
       clipPathUnits="userSpaceOnUse">
      <path
         id="path3001-2-2"
         d="m 0,266.156 1195.826,0 L 1195.826,0 0,0 0,266.156 z"
         inkscape:connector-curvature="0" />
    </clipPath>
    <clipPath
       id="clipPath2999-2"
       clipPathUnits="userSpaceOnUse">
      <path
         id="path3001-3"
         d="m 0,266.156 1195.826,0 L 1195.826,0 0,0 0,266.156 z"
         inkscape:connector-curvature="0" />
    </clipPath>
    <clipPath
       clipPathUnits="userSpaceOnUse"
       id="clipPath2999-27">
      <path
         inkscape:connector-curvature="0"
         d="m 0,595.275 841.89,0 L 841.89,0 0,0 0,595.275 z"
         id="path3001-9" />
    </clipPath>
    <clipPath
       clipPathUnits="userSpaceOnUse"
       id="clipPath2999-12">
      <path
         id="path3361"
         d="m0,34.753,76.528,0v-34.753h-76.528v34.753z" />
    </clipPath>
    <clipPath
       clipPathUnits="userSpaceOnUse"
       id="clipPath3136">
      <path
         inkscape:connector-curvature="0"
         d="m 0,91.623 463.665,0 L 463.665,0 0,0 0,91.623 z"
         id="path3138" />
    </clipPath>
    <clipPath
       clipPathUnits="userSpaceOnUse"
       id="clipPath2999-4">
      <path
         inkscape:connector-curvature="0"
         d="m 0,266.156 1195.826,0 L 1195.826,0 0,0 0,266.156 z"
         id="path3001-11" />
    </clipPath>
    <clipPath
       clipPathUnits="userSpaceOnUse"
       id="clipPath3285">
      <path
         inkscape:connector-curvature="0"
         d="m 0,30.086 85.672,0 L 85.672,0 0,0 0,30.086 z"
         id="path3287" />
    </clipPath>
    <clipPath
       clipPathUnits="userSpaceOnUse"
       id="clipPath3180">
      <path
         inkscape:connector-curvature="0"
         d="m 0,14.085 100.856,0 L 100.856,0 0,0 0,14.085 z"
         id="path3182" />
    </clipPath>
    <clipPath
       clipPathUnits="userSpaceOnUse"
       id="clipPath2999-7">
      <path
         inkscape:connector-curvature="0"
         d="m 0,890.732 890.729,0 L 890.729,0 0,0 0,890.732 z"
         id="path3001-7" />
    </clipPath>
  </defs>
  <sodipodi:namedview
     id="base"
     pagecolor="#ffffff"
     bordercolor="#666666"
     borderopacity="1.0"
     inkscape:pageopacity="0.0"
     inkscape:pageshadow="2"
     inkscape:zoom="0.49497475"
     inkscape:cx="261.43636"
     inkscape:cy="-10.179638"
     inkscape:document-units="px"
     inkscape:current-layer="layer1"
     showgrid="false"
     inkscape:window-width="1288"
     inkscape:window-height="829"
     inkscape:window-x="100"
     inkscape:window-y="100"
     inkscape:window-maximized="0" />
  <metadata
     id="metadata7">
    <rdf:RDF>
      <cc:Work
         rdf:about="">
        <dc:format>image/svg+xml</dc:format>
        <dc:type
           rdf:resource="http://purl.org/dc/dcmitype/StillImage" />
        <dc:title></dc:title>
      </cc:Work>
    </rdf:RDF>
  </metadata>
  <g
     inkscape:label="Layer 1"
     inkscape:groupmode="layer"
     id="layer1"
     transform="translate(0,-802.36217)">
    <g
       transform="matrix(3.7270538,0,0,3.7270538,-1197.6452,-1056.7805)"
       id="layer1-1"
       inkscape:label="Layer 1"
       style="fill:#ffffff">
      <g
         id="g3279"
         inkscape:label="payback"
         transform="matrix(1.25,0,0,-1.25,321.45488,551.16592)"
         style="fill:#ffffff">
        <g
           id="g3281"
           style="fill:#ffffff">
          <g
             id="g3283"
             clip-path="url(#clipPath3285)"
             style="fill:#ffffff">
            <g
               id="g3289"
               transform="translate(59.9238,17.9058)"
               style="fill:#ffffff">
              <path
                 inkscape:connector-curvature="0"
                 d="m 0,0 c -1.607,0 -2.914,-1.282 -2.914,-2.858 0,-1.576 1.307,-2.858 2.914,-2.858 1.608,0 2.916,1.282 2.916,2.858 C 2.916,-1.282 1.608,0 0,0"
                 style="fill:#ffffff;fill-opacity:1;fill-rule:nonzero;stroke:none"
                 id="path3291" />
            </g>
            <g
               id="g3293"
               transform="translate(59.9238,25.2568)"
               style="fill:#ffffff">
              <path
                 inkscape:connector-curvature="0"
                 d="m 0,0 c -1.607,0 -2.914,-1.282 -2.914,-2.858 0,-1.576 1.307,-2.858 2.914,-2.858 1.608,0 2.916,1.282 2.916,2.858 C 2.916,-1.282 1.608,0 0,0"
                 style="fill:#ffffff;fill-opacity:1;fill-rule:nonzero;stroke:none"
                 id="path3295" />
            </g>
            <g
               id="g3297"
               transform="translate(67.3877,10.5557)"
               style="fill:#ffffff">
              <path
                 inkscape:connector-curvature="0"
                 d="m 0,0 c -1.606,0 -2.913,-1.282 -2.913,-2.858 0,-1.577 1.307,-2.858 2.913,-2.858 1.608,0 2.916,1.281 2.916,2.858 C 2.916,-1.282 1.608,0 0,0"
                 style="fill:#ffffff;fill-opacity:1;fill-rule:nonzero;stroke:none"
                 id="path3299" />
            </g>
            <g
               id="g3301"
               transform="translate(31.9131,17.4878)"
               style="fill:#ffffff">
              <path
                 inkscape:connector-curvature="0"
                 d="m 0,0 -1.314,0 0,-1.149 1.305,0 c 0.41,0 0.598,0.246 0.598,0.583 C 0.589,-0.218 0.393,0 0,0"
                 style="fill:#ffffff;fill-opacity:1;fill-rule:nonzero;stroke:none"
                 id="path3303" />
            </g>
            <g
               id="g3305"
               transform="translate(32.3662,19.207)"
               style="fill:#ffffff">
              <path
                 inkscape:connector-curvature="0"
                 d="m 0,0 c 0,0.262 -0.128,0.466 -0.521,0.466 l -1.247,0 0,-0.932 1.247,0 C -0.137,-0.466 0,-0.279 0,0"
                 style="fill:#ffffff;fill-opacity:1;fill-rule:nonzero;stroke:none"
                 id="path3307" />
            </g>
            <g
               id="g3309"
               transform="translate(37.5361,19.2568)"
               style="fill:#ffffff">
              <path
                 inkscape:connector-curvature="0"
                 d="m 0,0 c -0.077,-0.396 -0.172,-0.726 -0.384,-1.48 l -0.112,-0.389 0.99,0 -0.111,0.389 C 0.17,-0.717 0.076,-0.396 0,0"
                 style="fill:#ffffff;fill-opacity:1;fill-rule:nonzero;stroke:none"
                 id="path3311" />
            </g>
            <g
               id="g3313"
               transform="translate(59.9238,10.5557)"
               style="fill:#ffffff">
              <path
                 inkscape:connector-curvature="0"
                 d="m 0,0 c -1.607,0 -2.914,-1.282 -2.914,-2.858 0,-1.577 1.307,-2.858 2.914,-2.858 1.608,0 2.916,1.281 2.916,2.858 C 2.916,-1.282 1.608,0 0,0"
                 style="fill:#ffffff;fill-opacity:1;fill-rule:nonzero;stroke:none"
                 id="path3315" />
            </g>
            <g
               id="g3317"
               transform="translate(74.8682,19.3359)"
               style="fill:#ffffff">
              <path
                 inkscape:connector-curvature="0"
                 d="m 0,0 c -1.718,0 -3.11,1.367 -3.11,3.053 0,1.688 1.392,3.053 3.11,3.053 1.717,0 3.11,-1.365 3.11,-3.053 C 3.11,1.367 1.717,0 0,0 m 0,-7.342 c -1.718,0 -3.11,1.369 -3.11,3.054 0,1.686 1.392,3.053 3.11,3.053 1.717,0 3.11,-1.367 3.11,-3.053 0,-1.685 -1.393,-3.054 -3.11,-3.054 m 0,-7.359 c -1.718,0 -3.11,1.366 -3.11,3.053 0,1.686 1.392,3.054 3.11,3.054 1.717,0 3.11,-1.368 3.11,-3.054 0,-1.687 -1.393,-3.053 -3.11,-3.053 m -7.48,14.516 c -1.822,0 -3.304,1.457 -3.304,3.248 0,1.791 1.482,3.248 3.304,3.248 1.823,0 3.306,-1.457 3.306,-3.248 0,-1.791 -1.483,-3.248 -3.306,-3.248 m -3.109,-4.103 c 0,1.686 1.393,3.053 3.109,3.053 1.717,0 3.111,-1.367 3.111,-3.053 0,-1.685 -1.394,-3.054 -3.111,-3.054 -1.716,0 -3.109,1.369 -3.109,3.054 m 3.109,-10.599 c -1.822,0 -3.304,1.457 -3.304,3.248 0,1.791 1.482,3.249 3.304,3.249 1.823,0 3.306,-1.458 3.306,-3.249 0,-1.791 -1.483,-3.248 -3.306,-3.248 m -7.464,14.702 c -1.823,0 -3.305,1.457 -3.305,3.248 0,1.791 1.482,3.248 3.305,3.248 1.823,0 3.306,-1.457 3.306,-3.248 0,-1.791 -1.483,-3.248 -3.306,-3.248 m 0,-7.352 c -1.823,0 -3.305,1.458 -3.305,3.249 0,1.791 1.482,3.247 3.305,3.247 1.823,0 3.306,-1.456 3.306,-3.247 0,-1.791 -1.483,-3.249 -3.306,-3.249 m 0,-7.35 c -1.823,0 -3.305,1.457 -3.305,3.248 0,1.791 1.482,3.249 3.305,3.249 1.823,0 3.306,-1.458 3.306,-3.249 0,-1.791 -1.483,-3.248 -3.306,-3.248 m -9.411,10.595 -1.248,2.521 -0.613,-0.735 0,-1.786 -1.69,0 0,5.923 1.69,0 0,-0.695 c 0,-0.498 -0.009,-1.031 -0.026,-1.463 0.248,0.389 0.768,1.075 1.153,1.557 l 0.478,0.601 2.014,0 -1.801,-2.09 2.005,-3.833 -1.962,0 z m -6.902,-0.092 c -1.776,0 -2.724,1.303 -2.724,3.053 0,1.904 1.127,3.054 2.732,3.054 1.469,0 2.048,-0.625 2.459,-1.743 l -1.502,-0.583 c -0.214,0.55 -0.419,0.896 -0.965,0.896 -0.692,0 -0.989,-0.684 -0.989,-1.624 0,-0.904 0.288,-1.624 1.006,-1.624 0.52,0 0.742,0.279 1.067,0.838 l 1.401,-0.736 c -0.403,-0.778 -1.067,-1.531 -2.485,-1.531 m -4.855,0.092 -0.326,1.041 -1.791,0 -0.323,-1.041 -1.777,0 2.168,5.923 1.673,0 2.168,-5.923 -1.792,0 z m -6.876,0 -2.869,0 0,5.923 2.885,0 c 1.486,0 2.091,-0.55 2.091,-1.541 0,-0.643 -0.316,-0.93 -0.716,-1.159 0.538,-0.228 0.853,-0.643 0.853,-1.31 0,-1.211 -0.742,-1.913 -2.244,-1.913 m -5.794,2.208 0,-2.208 -1.673,0 0,2.184 -2.211,3.739 1.913,0 0.459,-0.898 c 0.317,-0.617 0.573,-1.183 0.684,-1.529 0.11,0.346 0.367,0.912 0.682,1.529 l 0.462,0.898 1.895,0 -2.211,-3.715 z m -5.043,-2.208 -0.324,1.041 -1.792,0 -0.325,-1.041 -1.776,0 2.169,5.923 1.673,0 2.168,-5.923 -1.793,0 z m -6.536,1.92 -0.829,0 0,-1.92 -1.63,0 0,5.923 2.57,0 c 1.4,0 2.331,-0.533 2.331,-1.963 0,-1.506 -1.008,-2.04 -2.442,-2.04 m -5.258,0.789 c -0.964,0 -1.749,0.785 -1.749,1.75 0,0.965 0.785,1.75 1.749,1.75 0.966,0 1.751,-0.785 1.751,-1.75 0,-0.965 -0.785,-1.75 -1.751,-1.75 m 72.421,12.333 -77.668,0 c -2.21,0 -4.002,-1.792 -4.002,-4.002 l 0,-22.081 c 0,-2.21 1.792,-4.003 4.002,-4.003 l 77.668,0 c 2.21,0 4.002,1.793 4.002,4.003 l 0,22.081 c 0,2.21 -1.792,4.002 -4.002,4.002"
                 style="fill:#ffffff;fill-opacity:1;fill-rule:nonzero;stroke:none"
                 id="path3319" />
            </g>
            <g
               id="g3321"
               transform="translate(14.5757,19.6289)"
               style="fill:#ffffff">
              <path
                 inkscape:connector-curvature="0"
                 d="m 0,0 -0.898,0 0,-1.327 0.871,0 c 0.538,0 0.752,0.229 0.752,0.677 C 0.725,-0.262 0.528,0 0,0"
                 style="fill:#ffffff;fill-opacity:1;fill-rule:nonzero;stroke:none"
                 id="path3323" />
            </g>
            <g
               id="g3325"
               transform="translate(9.249,20.8638)"
               style="fill:#ffffff">
              <path
                 inkscape:connector-curvature="0"
                 d="m 0,0 c -0.75,0 -1.359,-0.61 -1.359,-1.361 0,-0.75 0.609,-1.36 1.359,-1.36 0.75,0 1.361,0.61 1.361,1.36 C 1.361,-0.61 0.75,0 0,0"
                 style="fill:#ffffff;fill-opacity:1;fill-rule:nonzero;stroke:none"
                 id="path3327" />
            </g>
            <g
               id="g3329"
               transform="translate(19.8218,19.2568)"
               style="fill:#ffffff">
              <path
                 inkscape:connector-curvature="0"
                 d="m 0,0 c -0.076,-0.396 -0.17,-0.726 -0.383,-1.48 l -0.111,-0.389 0.99,0 -0.112,0.389 C 0.171,-0.717 0.077,-0.396 0,0"
                 style="fill:#ffffff;fill-opacity:1;fill-rule:nonzero;stroke:none"
                 id="path3331" />
            </g>
            <g
               id="g3333"
               transform="translate(67.3877,25.2568)"
               style="fill:#ffffff">
              <path
                 inkscape:connector-curvature="0"
                 d="m 0,0 c -1.606,0 -2.913,-1.282 -2.913,-2.858 0,-1.576 1.307,-2.858 2.913,-2.858 1.608,0 2.916,1.282 2.916,2.858 C 2.916,-1.282 1.608,0 0,0"
                 style="fill:#ffffff;fill-opacity:1;fill-rule:nonzero;stroke:none"
                 id="path3335" />
            </g>
          </g>
        </g>
      </g>
    </g>
  </g>
</svg>
