<?xml version="1.0" encoding="UTF-8" standalone="no"?>
<!-- Created with Inkscape (http://www.inkscape.org/) -->

<svg
   xmlns:dc="http://purl.org/dc/elements/1.1/"
   xmlns:cc="http://creativecommons.org/ns#"
   xmlns:rdf="http://www.w3.org/1999/02/22-rdf-syntax-ns#"
   xmlns:svg="http://www.w3.org/2000/svg"
   xmlns="http://www.w3.org/2000/svg"
   xmlns:sodipodi="http://sodipodi.sourceforge.net/DTD/sodipodi-0.dtd"
   xmlns:inkscape="http://www.inkscape.org/namespaces/inkscape"
   width="400"
   height="250"
   id="svg2"
   version="1.1"
   viewBox="0 0 400 250"
   inkscape:version="0.48.4 r9939"
   sodipodi:docname="payback.svg"
   inkscape:export-filename="D:\Testowane projekty\Merix_nowa Strona\Logo Home\akumulator.png"
   inkscape:export-xdpi="90"
   inkscape:export-ydpi="90">
  <defs
     id="defs4">
    <clipPath
       clipPathUnits="userSpaceOnUse"
       id="clipPath2999">
      <path
         inkscape:connector-curvature="0"
         d="m 0,266.156 1195.826,0 L 1195.826,0 0,0 0,266.156 z"
         id="path3001" />
    </clipPath>
    <clipPath
       clipPathUnits="userSpaceOnUse"
       id="clipPath2999-8">
      <path
         inkscape:connector-curvature="0"
         d="m 0,266.156 1195.826,0 L 1195.826,0 0,0 0,266.156 z"
         id="path3001-2" />
    </clipPath>
    <clipPath
       clipPathUnits="userSpaceOnUse"
       id="clipPath2999-1">
      <path
         inkscape:connector-curvature="0"
         d="m 0,595.275 841.89,0 L 841.89,0 0,0 0,595.275 z"
         id="path3001-1" />
    </clipPath>
    <clipPath
       clipPathUnits="userSpaceOnUse"
       id="clipPath2999-6">
      <path
         id="path3245"
         d="m0,34.753,76.528,0v-34.753h-76.528v34.753z" />
    </clipPath>
    <clipPath
       id="clipPath2999-6-8"
       clipPathUnits="userSpaceOnUse">
      <path
         d="m0,34.753,76.528,0v-34.753h-76.528v34.753z"
         id="path3245-5" />
    </clipPath>
    <clipPath
       id="clipPath2999-1-1"
       clipPathUnits="userSpaceOnUse">
      <path
         id="path3001-1-6"
         d="m 0,595.275 841.89,0 L 841.89,0 0,0 0,595.275 z"
         inkscape:connector-curvature="0" />
    </clipPath>
    <clipPath
       id="clipPath2999-8-2"
       clipPathUnits="userSpaceOnUse">
      <path
         id="path3001-2-2"
         d="m 0,266.156 1195.826,0 L 1195.826,0 0,0 0,266.156 z"
         inkscape:connector-curvature="0" />
    </clipPath>
    <clipPath
       id="clipPath2999-2"
       clipPathUnits="userSpaceOnUse">
      <path
         id="path3001-3"
         d="m 0,266.156 1195.826,0 L 1195.826,0 0,0 0,266.156 z"
         inkscape:connector-curvature="0" />
    </clipPath>
    <clipPath
       clipPathUnits="userSpaceOnUse"
       id="clipPath2999-27">
      <path
         inkscape:connector-curvature="0"
         d="m 0,595.275 841.89,0 L 841.89,0 0,0 0,595.275 z"
         id="path3001-9" />
    </clipPath>
    <clipPath
       clipPathUnits="userSpaceOnUse"
       id="clipPath2999-12">
      <path
         id="path3361"
         d="m0,34.753,76.528,0v-34.753h-76.528v34.753z" />
    </clipPath>
    <clipPath
       clipPathUnits="userSpaceOnUse"
       id="clipPath3136">
      <path
         inkscape:connector-curvature="0"
         d="m 0,91.623 463.665,0 L 463.665,0 0,0 0,91.623 z"
         id="path3138" />
    </clipPath>
    <clipPath
       clipPathUnits="userSpaceOnUse"
       id="clipPath2999-4">
      <path
         inkscape:connector-curvature="0"
         d="m 0,266.156 1195.826,0 L 1195.826,0 0,0 0,266.156 z"
         id="path3001-11" />
    </clipPath>
    <clipPath
       clipPathUnits="userSpaceOnUse"
       id="clipPath3285">
      <path
         inkscape:connector-curvature="0"
         d="m 0,30.086 85.672,0 L 85.672,0 0,0 0,30.086 z"
         id="path3287" />
    </clipPath>
    <clipPath
       clipPathUnits="userSpaceOnUse"
       id="clipPath3180">
      <path
         inkscape:connector-curvature="0"
         d="m 0,14.085 100.856,0 L 100.856,0 0,0 0,14.085 z"
         id="path3182" />
    </clipPath>
    <clipPath
       clipPathUnits="userSpaceOnUse"
       id="clipPath2999-7">
      <path
         inkscape:connector-curvature="0"
         d="m 0,890.732 890.729,0 L 890.729,0 0,0 0,890.732 z"
         id="path3001-7" />
    </clipPath>
  </defs>
  <sodipodi:namedview
     id="base"
     pagecolor="#ffffff"
     bordercolor="#666666"
     borderopacity="1.0"
     inkscape:pageopacity="0.0"
     inkscape:pageshadow="2"
     inkscape:zoom="0.7"
     inkscape:cx="257.17806"
     inkscape:cy="115.62681"
     inkscape:document-units="px"
     inkscape:current-layer="layer1"
     showgrid="false"
     inkscape:window-width="1288"
     inkscape:window-height="829"
     inkscape:window-x="100"
     inkscape:window-y="100"
     inkscape:window-maximized="0" />
  <metadata
     id="metadata7">
    <rdf:RDF>
      <cc:Work
         rdf:about="">
        <dc:format>image/svg+xml</dc:format>
        <dc:type
           rdf:resource="http://purl.org/dc/dcmitype/StillImage" />
        <dc:title></dc:title>
      </cc:Work>
    </rdf:RDF>
  </metadata>
  <g
     inkscape:label="Layer 1"
     inkscape:groupmode="layer"
     id="layer1"
     transform="translate(0,-802.36217)">
    <g
       id="g3560"
       transform="matrix(0.21358976,0,0,0.21358976,119.89129,813.65398)"
       style="fill:#ffffff">
      <g
         id="g3562"
         transform="matrix(1.25,0,0,-1.25,-877.46075,2286.6626)"
         style="fill:#ffffff">
        <g
           id="g3564"
           transform="translate(1410.8486,1475.0923)"
           style="fill:#ffffff">
          <path
             id="path3566"
             d="m 0,0 97.325,-31.48 129.94,-41.982 18.476,-75.462 -134.87,49.062 12.699,-64.134 138.97,-53.52 34.16,-139.51 L 41.36,-253.986 0,-0.006 z m -16.707,-83.954 -9.808,3.853 -14.802,111.64 6.085,-1.749 18.525,-113.75 z m -154.69,-80.777 -9.955,113.23 34.444,-13.529 -16.565,163.05 -90.921,26.243 10.357,-152.08 34.592,-13.069 9.285,-112.03 -151.9,62.372 -2.295,104.41 24.572,-9.285 -4.924,142.86 -73.401,21.185 14.117,59.991 223.12,-57.76 0,0.023 83.709,-21.654 0.004,-0.038 48.765,-12.624 0,-0.002 228.73,-59.185 21.387,-87.338 -261.55,75.148 -0.009,0.035 -27.225,7.859 23.154,-174.63 35.982,-14.135 17.673,-119.32 -171.14,70.274 z m -44.066,158.84 0.061,-0.693 -0.028,0.01 -6.14,90.156 30.314,-8.749 9.548,-93.982 -33.755,13.258 z m -363.81,-18.558 -2.432,-43.259 -34.877,58.685 16.365,32.916 20.944,-48.342 z m 115.41,9.527 -1.659,-75.622 -89.5,-36.752 6.083,108.25 -49.409,114.05 -52.357,-105.3 74.663,-125.62 -81.109,-33.311 -52.805,77.013 -11.278,-103.32 -96.089,-39.461 44.238,298.71 -130.58,-37.545 -125.82,-36.17 21.4,87.389 257.84,66.719 68.005,17.596 -10.966,-100.48 52.477,111.22 92.82,24.017 38.991,-111.4 29.963,129.24 70.846,18.335 -55.754,-247.55 z m -395.25,-239.06 -255.35,-103.04 34.167,139.51 138.97,53.514 12.702,64.134 -134.88,-49.062 18.466,75.406 207.91,67.248 -0.002,0.005 19.373,6.265 -41.359,-253.98 z m 1147.1,58.819 -0.005,0.002 -34.792,142.1 -37.951,154.98 -229.48,59.379 -45.617,11.809 -0.005,0.043 -103.46,26.762 -28.225,7.284 -180.96,46.846 -36.238,9.381 -8.324,-2.155 -86.949,-22.503 -10.714,-46.216 -13.944,39.84 -504.22,-130.47 -37.968,-155.04 10e-4,0 -35.057,-143.16 -51.539,-210.45 325.27,131.26 0.336,2.059 138.54,56.893 4.432,40.598 20.753,-30.265 80.548,33.08 0,-0.003 151.65,62.276 2.024,92.243 34.568,153.48 35.458,-10.234 2.623,-76.125 -24.009,9.071 3.704,-168.44 181.94,-74.706 0,-0.003 213.8,-87.795 0.347,-2.133 325.27,-131.26 -51.809,211.57 z"
             style="fill:#ffffff;fill-rule:nonzero"
             inkscape:connector-curvature="0" />
        </g>
      </g>
    </g>
  </g>
</svg>
