<?xml version="1.0" encoding="UTF-8" standalone="no"?>
<!-- Created with Inkscape (http://www.inkscape.org/) -->

<svg
   xmlns:dc="http://purl.org/dc/elements/1.1/"
   xmlns:cc="http://creativecommons.org/ns#"
   xmlns:rdf="http://www.w3.org/1999/02/22-rdf-syntax-ns#"
   xmlns:svg="http://www.w3.org/2000/svg"
   xmlns="http://www.w3.org/2000/svg"
   xmlns:sodipodi="http://sodipodi.sourceforge.net/DTD/sodipodi-0.dtd"
   xmlns:inkscape="http://www.inkscape.org/namespaces/inkscape"
   width="400"
   height="250"
   id="svg2"
   version="1.1"
   viewBox="0 0 400 250"
   inkscape:version="0.48.4 r9939"
   sodipodi:docname="vw.svg"
   inkscape:export-filename="D:\Testowane projekty\Merix_nowa Strona\Logo Home\akumulator.png"
   inkscape:export-xdpi="90"
   inkscape:export-ydpi="90">
  <defs
     id="defs4">
    <clipPath
       clipPathUnits="userSpaceOnUse"
       id="clipPath2999">
      <path
         inkscape:connector-curvature="0"
         d="m 0,266.156 1195.826,0 L 1195.826,0 0,0 0,266.156 z"
         id="path3001" />
    </clipPath>
    <clipPath
       clipPathUnits="userSpaceOnUse"
       id="clipPath2999-8">
      <path
         inkscape:connector-curvature="0"
         d="m 0,266.156 1195.826,0 L 1195.826,0 0,0 0,266.156 z"
         id="path3001-2" />
    </clipPath>
    <clipPath
       clipPathUnits="userSpaceOnUse"
       id="clipPath2999-1">
      <path
         inkscape:connector-curvature="0"
         d="m 0,595.275 841.89,0 L 841.89,0 0,0 0,595.275 z"
         id="path3001-1" />
    </clipPath>
    <clipPath
       clipPathUnits="userSpaceOnUse"
       id="clipPath2999-6">
      <path
         id="path3245"
         d="m0,34.753,76.528,0v-34.753h-76.528v34.753z" />
    </clipPath>
    <clipPath
       id="clipPath2999-6-8"
       clipPathUnits="userSpaceOnUse">
      <path
         d="m0,34.753,76.528,0v-34.753h-76.528v34.753z"
         id="path3245-5" />
    </clipPath>
    <clipPath
       id="clipPath2999-1-1"
       clipPathUnits="userSpaceOnUse">
      <path
         id="path3001-1-6"
         d="m 0,595.275 841.89,0 L 841.89,0 0,0 0,595.275 z"
         inkscape:connector-curvature="0" />
    </clipPath>
    <clipPath
       id="clipPath2999-8-2"
       clipPathUnits="userSpaceOnUse">
      <path
         id="path3001-2-2"
         d="m 0,266.156 1195.826,0 L 1195.826,0 0,0 0,266.156 z"
         inkscape:connector-curvature="0" />
    </clipPath>
    <clipPath
       id="clipPath2999-2"
       clipPathUnits="userSpaceOnUse">
      <path
         id="path3001-3"
         d="m 0,266.156 1195.826,0 L 1195.826,0 0,0 0,266.156 z"
         inkscape:connector-curvature="0" />
    </clipPath>
    <clipPath
       clipPathUnits="userSpaceOnUse"
       id="clipPath2999-27">
      <path
         inkscape:connector-curvature="0"
         d="m 0,595.275 841.89,0 L 841.89,0 0,0 0,595.275 z"
         id="path3001-9" />
    </clipPath>
    <clipPath
       clipPathUnits="userSpaceOnUse"
       id="clipPath2999-12">
      <path
         id="path3361"
         d="m0,34.753,76.528,0v-34.753h-76.528v34.753z" />
    </clipPath>
    <clipPath
       clipPathUnits="userSpaceOnUse"
       id="clipPath3136">
      <path
         inkscape:connector-curvature="0"
         d="m 0,91.623 463.665,0 L 463.665,0 0,0 0,91.623 z"
         id="path3138" />
    </clipPath>
    <clipPath
       clipPathUnits="userSpaceOnUse"
       id="clipPath2999-4">
      <path
         inkscape:connector-curvature="0"
         d="m 0,266.156 1195.826,0 L 1195.826,0 0,0 0,266.156 z"
         id="path3001-11" />
    </clipPath>
    <clipPath
       clipPathUnits="userSpaceOnUse"
       id="clipPath3285">
      <path
         inkscape:connector-curvature="0"
         d="m 0,30.086 85.672,0 L 85.672,0 0,0 0,30.086 z"
         id="path3287" />
    </clipPath>
    <clipPath
       clipPathUnits="userSpaceOnUse"
       id="clipPath3180">
      <path
         inkscape:connector-curvature="0"
         d="m 0,14.085 100.856,0 L 100.856,0 0,0 0,14.085 z"
         id="path3182" />
    </clipPath>
    <clipPath
       clipPathUnits="userSpaceOnUse"
       id="clipPath2999-7">
      <path
         inkscape:connector-curvature="0"
         d="m 0,890.732 890.729,0 L 890.729,0 0,0 0,890.732 z"
         id="path3001-7" />
    </clipPath>
    <clipPath
       clipPathUnits="userSpaceOnUse"
       id="clipPath2999-9">
      <path
         id="path3591"
         d="m0,890.73,890.73,0v-890.73h-890.73v890.73z" />
    </clipPath>
  </defs>
  <sodipodi:namedview
     id="base"
     pagecolor="#ffffff"
     bordercolor="#666666"
     borderopacity="1.0"
     inkscape:pageopacity="0.0"
     inkscape:pageshadow="2"
     inkscape:zoom="1.4"
     inkscape:cx="206.01533"
     inkscape:cy="57.309644"
     inkscape:document-units="px"
     inkscape:current-layer="layer1"
     showgrid="false"
     inkscape:window-width="1288"
     inkscape:window-height="829"
     inkscape:window-x="100"
     inkscape:window-y="100"
     inkscape:window-maximized="0" />
  <metadata
     id="metadata7">
    <rdf:RDF>
      <cc:Work
         rdf:about="">
        <dc:format>image/svg+xml</dc:format>
        <dc:type
           rdf:resource="http://purl.org/dc/dcmitype/StillImage" />
        <dc:title></dc:title>
      </cc:Work>
    </rdf:RDF>
  </metadata>
  <g
     inkscape:label="Layer 1"
     inkscape:groupmode="layer"
     id="layer1"
     transform="translate(0,-802.36217)">
    <g
       id="g3762"
       transform="matrix(2.0384993,0,0,2.0384993,49.218322,782.28421)"
       style="fill:#ffffff">
	<path
   id="path3764"
   d="m 73.965,10.986 c -33.236,0 -60.181,26.947 -60.181,60.184 0,33.235 26.944,60.182 60.181,60.182 33.238,0 60.185,-26.947 60.185,-60.182 0,-33.237 -26.947,-60.184 -60.185,-60.184 z m 10e-4,118.555 c -32.238,0 -58.372,-26.133 -58.372,-58.373 0,-32.239 26.134,-58.373 58.372,-58.373 32.241,0 58.375,26.134 58.375,58.373 0.001,32.24 -26.134,58.373 -58.375,58.373 z"
   inkscape:connector-curvature="0"
   style="fill:#ffffff" />

	<path
   id="path3766"
   d="m 73.966,15.413 c -26.849,0 -49.325,19.081 -54.588,44.394 l 1.148,0.27 c 5.139,-24.795 27.15,-43.484 53.439,-43.484 26.319,0 48.346,18.73 53.458,43.552 l 1.148,-0.263 C 123.338,34.527 100.846,15.413 73.966,15.413 z"
   inkscape:connector-curvature="0"
   style="fill:#ffffff" />

	<path
   id="path3768"
   d="M 124.545,60.816 C 119.734,37.3 98.887,19.552 73.966,19.552 c -24.891,0 -45.725,17.714 -50.559,41.196 l 1.149,0.271 C 29.268,38.054 49.632,20.73 73.966,20.73 c 24.362,0 44.745,17.357 49.426,40.355 l 1.153,-0.269 z"
   inkscape:connector-curvature="0"
   style="fill:#ffffff" />

	<path
   id="path3770"
   d="M 120.812,61.691 C 116.402,39.865 97.074,23.38 73.966,23.38 50.885,23.38 31.574,39.823 27.138,61.616 l 1.147,0.27 C 32.599,40.619 51.443,24.56 73.966,24.56 c 22.551,0 41.411,16.093 45.696,37.4 l 1.15,-0.269 z"
   inkscape:connector-curvature="0"
   style="fill:#ffffff" />

	<path
   id="path3772"
   d="m 73.966,26.916 c -21.405,0 -39.309,15.284 -43.381,35.51 l 1.151,0.27 C 35.684,42.988 53.118,28.1 73.966,28.1 c 20.877,0 38.327,14.921 42.247,34.661 l 1.15,-0.262 C 113.32,42.234 95.398,26.916 73.966,26.916 z"
   inkscape:connector-curvature="0"
   style="fill:#ffffff" />

	<polygon
   id="polygon3774"
   points="22.507,76.818 20.816,77.113 22.167,84.668 23.861,84.363 22.949,79.268 30.312,83.182 31.938,82.893 30.613,75.49 28.894,75.795 29.765,80.666 "
   style="fill:#ffffff" />

	<path
   id="path3776"
   d="m 33.179,86.33 -10.534,0.332 0.793,2.021 2.145,-0.117 1.336,3.4 -1.662,1.348 0.82,2.086 7.961,-6.891 -0.859,-2.179 z m -4.862,4.492 -0.925,-2.355 4.097,-0.23 -3.172,2.585 z"
   inkscape:connector-curvature="0"
   style="fill:#ffffff" />

	<path
   id="path3778"
   d="m 34.395,98.662 -1.364,0.924 1.282,1.885 c -0.587,0.277 -1.166,0.338 -1.741,0.193 -0.574,-0.145 -1.058,-0.508 -1.447,-1.078 -0.396,-0.586 -0.542,-1.25 -0.441,-1.996 0.105,-0.736 0.664,-1.449 1.66,-2.133 0.997,-0.672 1.887,-0.965 2.673,-0.883 0.779,0.088 1.397,0.465 1.846,1.123 0.231,0.34 0.383,0.697 0.451,1.062 0.119,0.656 -0.059,1.238 -0.534,1.746 l 1.163,1.707 c 0.725,-0.621 1.135,-1.436 1.233,-2.428 0.097,-0.99 -0.207,-2.01 -0.918,-3.051 -0.815,-1.209 -1.873,-1.898 -3.166,-2.09 -1.298,-0.193 -2.604,0.166 -3.928,1.066 -1.311,0.885 -2.098,1.947 -2.359,3.186 -0.283,1.197 -0.053,2.34 0.684,3.426 0.448,0.658 0.963,1.121 1.544,1.385 0.338,0.154 0.812,0.27 1.42,0.334 l -0.903,0.879 0.771,1.139 4.395,-2.982 -2.321,-3.414 z"
   inkscape:connector-curvature="0"
   style="fill:#ffffff" />

	<polygon
   id="polygon3780"
   points="38.387,103.562 36.009,103.318 35.123,104.297 37.443,104.541 34.553,107.516 39.598,112.41 40.83,111.141 37.266,107.684 40.053,104.812 41.818,104.996 42.705,104.014 41,103.836 42.95,101.828 41.466,100.393 "
   style="fill:#ffffff" />

	<path
   id="path3782"
   d="m 47.912,108.385 4.287,2.826 0.978,-1.475 -5.971,-3.939 -5.469,8.287 2.254,1.488 c -0.114,0.127 -0.231,0.26 -0.341,0.422 -0.309,0.457 -0.444,0.91 -0.409,1.346 0.037,0.443 0.297,0.822 0.779,1.145 0.483,0.322 0.963,0.402 1.436,0.225 0.299,-0.105 0.534,-0.27 0.711,-0.492 l -0.806,-0.545 c -0.119,0.145 -0.25,0.242 -0.396,0.283 -0.143,0.047 -0.306,0.006 -0.486,-0.113 -0.262,-0.176 -0.356,-0.418 -0.283,-0.721 0.039,-0.174 0.133,-0.373 0.283,-0.598 0.116,-0.168 0.229,-0.303 0.335,-0.406 l 3.098,2.041 0.972,-1.479 -4.49,-2.963 1.422,-2.156 3.919,2.59 0.946,-1.438 -3.917,-2.588 1.148,-1.74 z"
   inkscape:connector-curvature="0"
   style="fill:#ffffff" />

	<path
   id="path3784"
   d="m 60.812,114.096 c -0.213,-0.832 -0.881,-1.473 -1.995,-1.939 l -4.449,-1.77 -3.677,9.221 4.154,1.656 c 0.468,0.188 0.916,0.318 1.35,0.396 0.434,0.07 0.843,0.055 1.229,-0.051 0.338,-0.09 0.652,-0.252 0.938,-0.469 0.448,-0.324 0.782,-0.76 0.997,-1.307 0.215,-0.529 0.272,-1.029 0.186,-1.494 -0.09,-0.465 -0.331,-0.875 -0.728,-1.232 0.367,-0.039 0.666,-0.123 0.899,-0.254 0.417,-0.227 0.734,-0.623 0.959,-1.188 0.217,-0.544 0.264,-1.067 0.137,-1.569 z m -3.318,4.845 c -0.228,0.572 -0.584,0.873 -1.072,0.908 -0.27,0.02 -0.602,-0.053 -1.008,-0.215 l -2.26,-0.898 0.982,-2.461 2.293,0.908 c 0.395,0.164 0.687,0.342 0.864,0.527 0.324,0.341 0.393,0.751 0.201,1.231 z m 1.251,-3.808 c -0.154,0.387 -0.387,0.607 -0.696,0.658 -0.31,0.055 -0.664,0.004 -1.065,-0.152 l -2.237,-0.893 0.809,-2.033 2.004,0.797 c 0.439,0.176 0.786,0.371 1.029,0.576 0.276,0.269 0.327,0.617 0.156,1.047 z"
   inkscape:connector-curvature="0"
   style="fill:#ffffff" />

	
		<rect
   id="rect3786"
   height="9.9300003"
   width="2.066"
   transform="matrix(-0.9735,-0.2288,0.2288,-0.9735,97.0185,248.3843)"
   y="113.603"
   x="61.876999"
   style="fill:#ffffff" />

	<polygon
   id="polygon3788"
   points="72.91,118.84 68.234,118.42 68.422,116.338 73.537,116.801 73.697,115.037 66.575,114.398 65.681,124.283 73.049,124.949 73.207,123.188 67.847,122.701 68.08,120.135 72.753,120.555 "
   style="fill:#ffffff" />

	<polygon
   id="polygon3790"
   points="82.111,122.408 80.666,114.383 78.635,114.748 80.395,124.52 87.311,123.275 86.996,121.527 "
   style="fill:#ffffff" />

	<path
   id="path3792"
   d="m 93.691,110.387 -1.965,0.779 2.229,5.654 c 0.248,0.633 0.355,1.129 0.32,1.477 -0.029,0.605 -0.43,1.066 -1.205,1.369 -0.777,0.311 -1.387,0.25 -1.822,-0.178 -0.264,-0.23 -0.52,-0.664 -0.771,-1.295 l -2.227,-5.664 -1.967,0.777 2.234,5.67 c 0.385,0.982 0.836,1.686 1.357,2.113 0.967,0.779 2.246,0.852 3.844,0.221 1.598,-0.623 2.482,-1.553 2.654,-2.775 0.086,-0.672 -0.061,-1.494 -0.445,-2.471 l -2.236,-5.677 z"
   inkscape:connector-curvature="0"
   style="fill:#ffffff" />

	<path
   id="path3794"
   d="m 104.361,109.996 c -0.438,-0.193 -0.912,-0.227 -1.428,-0.105 0.178,-0.322 0.277,-0.617 0.301,-0.875 0.047,-0.479 -0.1,-0.965 -0.436,-1.473 -0.324,-0.486 -0.734,-0.822 -1.221,-1.004 -0.799,-0.289 -1.709,-0.1 -2.723,0.551 l -3.984,2.662 5.52,8.256 3.717,-2.486 c 0.416,-0.281 0.779,-0.572 1.086,-0.889 0.311,-0.316 0.529,-0.656 0.656,-1.035 0.117,-0.33 0.166,-0.68 0.15,-1.043 -0.016,-0.555 -0.186,-1.07 -0.516,-1.564 -0.313,-0.468 -0.69,-0.802 -1.122,-0.995 z m -6.896,0.092 1.791,-1.199 c 0.393,-0.258 0.748,-0.436 1.059,-0.521 0.377,-0.072 0.691,0.084 0.949,0.471 0.232,0.342 0.283,0.662 0.152,0.945 -0.131,0.285 -0.379,0.547 -0.734,0.787 l -2.002,1.342 -1.215,-1.825 z m 6.371,3.336 c -0.135,0.232 -0.385,0.467 -0.746,0.707 l -2.021,1.352 -1.473,-2.203 2.049,-1.375 c 0.357,-0.232 0.664,-0.371 0.926,-0.412 0.459,-0.076 0.836,0.104 1.123,0.533 0.341,0.507 0.386,0.976 0.142,1.398 z"
   inkscape:connector-curvature="0"
   style="fill:#ffffff" />

	<polygon
   id="polygon3796"
   points="110.555,110.34 103.891,102.988 102.359,104.367 109.025,111.73 "
   style="fill:#ffffff" />

	<polygon
   id="polygon3798"
   points="108.506,102.404 116.518,103.76 117.822,102.172 110.15,95.869 108.932,97.346 114.285,101.744 106.436,100.393 105.064,102.062 112.736,108.357 113.955,106.879 "
   style="fill:#ffffff" />

	<path
   id="path3800"
   d="m 122.447,86.004 c -0.824,-0.32 -1.562,-0.293 -2.209,0.088 -0.418,0.242 -0.852,0.686 -1.293,1.324 l -1.014,1.457 c -0.387,0.561 -0.672,0.914 -0.857,1.062 -0.277,0.238 -0.584,0.285 -0.916,0.154 -0.357,-0.139 -0.58,-0.402 -0.664,-0.779 -0.084,-0.377 -0.025,-0.816 0.172,-1.318 0.176,-0.453 0.402,-0.803 0.676,-1.047 0.414,-0.363 0.906,-0.453 1.473,-0.266 l 0.727,-1.861 c -0.994,-0.35 -1.885,-0.281 -2.672,0.215 -0.787,0.484 -1.371,1.215 -1.754,2.193 -0.459,1.18 -0.533,2.172 -0.223,2.988 0.312,0.818 0.879,1.395 1.711,1.721 0.906,0.35 1.695,0.303 2.363,-0.154 0.4,-0.27 0.896,-0.844 1.494,-1.734 l 0.607,-0.896 c 0.352,-0.531 0.662,-0.898 0.928,-1.105 0.273,-0.203 0.562,-0.246 0.867,-0.131 0.521,0.203 0.771,0.617 0.748,1.238 -0.012,0.328 -0.109,0.719 -0.289,1.18 -0.299,0.764 -0.703,1.236 -1.201,1.404 -0.279,0.09 -0.637,0.084 -1.082,-0.025 l -0.723,1.861 c 0.963,0.375 1.85,0.318 2.674,-0.16 0.818,-0.477 1.463,-1.318 1.939,-2.527 0.459,-1.191 0.543,-2.211 0.242,-3.08 -0.306,-0.87 -0.88,-1.47 -1.724,-1.802 z"
   inkscape:connector-curvature="0"
   style="fill:#ffffff" />

	<path
   id="path3802"
   d="m 116.584,79.844 9.201,5.141 0.363,-2.133 -1.902,-1.01 0.609,-3.598 2.117,-0.303 0.375,-2.215 -10.371,1.811 -0.392,2.307 z m 6.484,-1.348 -0.422,2.502 -3.629,-1.914 4.051,-0.588 z"
   inkscape:connector-curvature="0"
   style="fill:#ffffff" />

	<path
   id="path3804"
   d="m 73.966,31.875 c -21.702,0 -39.293,17.587 -39.293,39.293 0,21.705 17.591,39.291 39.293,39.291 21.708,0 39.295,-17.586 39.295,-39.291 C 113.262,49.462 95.674,31.875 73.966,31.875 z m 4.149,2.194 c 2.877,0.317 5.654,0.964 8.297,1.899 v 3.555 l -1.371,-1.328 -6.926,6.531 V 34.069 z m -16.591,1.899 c 2.641,-0.936 5.42,-1.582 8.296,-1.677 v 10.446 l -6.943,-6.543 -1.353,1.314 v -3.54 z m -8.296,49.139 -5.942,5.275 5.942,6.256 v 5.57 c -3.132,-2.094 -5.929,-4.658 -8.294,-7.58 V 66.065 l 2.931,3.703 5.363,-5.179 v 20.518 z m 0,-37.538 -8.294,8.058 v -7.921 c 2.365,-2.921 5.162,-5.479 8.294,-7.578 v 7.441 z m 38.715,33.923 c 0,2.9 -3.285,6.314 -5.605,7.605 -0.341,0.189 -0.77,0.39 -1.255,0.606 l 1.329,1.362 v 15.301 c -2.643,0.938 -5.42,1.582 -8.297,1.898 V 93.11 c -1.382,0.835 -2.795,1.827 -4.149,3.042 -1.352,-1.215 -2.765,-2.207 -4.146,-3.043 v 15.379 c -2.876,-0.539 -5.655,-1.184 -8.296,-2.121 V 91.182 L 62.93,89.74 c -0.518,-0.23 -0.973,-0.442 -1.332,-0.642 -2.322,-1.291 -5.607,-4.705 -5.607,-7.605 0,-2.893 0,-27.77 0,-27.77 0,0 2.39,0 5.533,0 0.937,0 1.937,0 2.964,0 L 69.82,48.58 v 5.143 c 1.573,0 3.016,0 4.146,0 1.132,0 2.576,0 4.149,0 v -5.131 l 5.316,5.131 c 1.033,0 2.039,0 2.98,0 3.143,0 5.531,0 5.531,0 0,0 0.001,24.877 0.001,27.769 z m 2.762,20.717 v -5.446 l 6.059,-6.38 -6.059,-5.382 v -20.4 l 5.35,5.167 1.547,-15.534 -6.896,-6.679 v -7.427 c 3.135,2.1 5.93,4.657 8.299,7.578 v 46.923 c -2.37,2.922 -5.165,5.48 -8.3,7.58 z"
   inkscape:connector-curvature="0"
   style="fill:#ffffff" />

	<g
   id="g3806"
   style="fill:#ffffff">
		<path
   id="path3808"
   d="m 70.194,69.957 c -2.418,-0.357 -5.818,-1.885 -6.314,-2.84 0,0 1.479,3.338 4.697,4.744 0.686,0.297 3.295,0.942 3.434,-0.484 0.07,-0.713 -0.293,-1.192 -1.817,-1.42 z"
   inkscape:connector-curvature="0"
   style="fill:#ffffff" />

		<g
   id="g3810"
   style="fill:#ffffff">
			<polygon
   id="polygon3812"
   points="78.828,64.599 79.023,64.599 79.023,64.8 79.023,65.979 80.141,65.979 80.141,64.8 80.141,64.599 80.293,64.599 78.039,59.342 75.789,64.599 75.943,64.599 75.943,64.8 75.943,65.979 77.057,65.979 77.057,64.8 77.057,64.599 77.256,64.599 "
   style="fill:#ffffff" />

			<path
   id="path3814"
   d="m 75.059,89.348 c 2.201,-1.393 4.295,-2.396 5.963,-3.137 V 67.359 h -5.963 v 21.989 z m 2.919,-20.697 c 0.779,0 1.414,1.266 1.414,2.826 0,0.135 -0.004,0.271 -0.016,0.397 h -2.799 c -0.01,-0.127 -0.02,-0.263 -0.02,-0.397 0.001,-1.56 0.637,-2.826 1.421,-2.826 z m 0,6.273 c 0.779,0 1.414,1.273 1.414,2.834 0,0.127 -0.004,0.264 -0.016,0.389 h -2.799 c -0.01,-0.125 -0.02,-0.262 -0.02,-0.389 0.001,-1.561 0.637,-2.834 1.421,-2.834 z m 0,6.185 c 0.779,0 1.414,1.271 1.414,2.834 0,0.102 -0.004,0.213 -0.008,2.133 -0.869,0.412 -1.818,0.889 -2.812,1.441 -0.004,-3.32 -0.014,-3.447 -0.014,-3.574 0,-1.562 0.636,-2.834 1.42,-2.834 z"
   inkscape:connector-curvature="0"
   style="fill:#ffffff" />

			<path
   id="path3816"
   d="m 73.976,55.392 c 0,0 -13.553,0 -16.303,0 0,2.954 0,26.1 0,26.1 0,1.939 2.594,4.947 4.742,6.145 0.498,0.27 1.26,0.607 2.143,0.982 2.451,1.064 6.029,2.633 9.418,5.352 3.391,-2.719 6.969,-4.287 9.418,-5.352 0.889,-0.375 1.646,-0.713 2.141,-0.982 2.152,-1.197 4.746,-4.205 4.746,-6.145 0,0 0,-23.146 0,-26.1 -2.751,0 -16.305,0 -16.305,0 z m -0.422,5.849 v 29.5 c 0,0 -1.246,-0.316 -1.246,-1.891 0,0 -0.148,-0.539 -0.539,-0.539 -0.395,0 -0.246,0.693 -1.232,0.693 -0.982,0 -0.881,-1.279 -0.881,-1.279 0,0 -2.361,0.539 -1.822,-3.197 0,0 0.309,1.738 2.506,1.521 2.02,-0.195 2.168,-1.064 2.168,-1.918 0,-0.848 -1.266,-0.713 -1.266,-1.865 0,-1.15 0.854,-0.82 1.051,-1.83 0.195,-1.021 0.23,-2.361 -0.033,-3.48 -0.271,-1.15 -0.686,-0.557 -0.686,-0.557 -0.037,1.15 -0.822,1.932 -0.986,1.998 -0.164,0.066 -0.558,0.033 -0.558,0.033 l -0.164,1.381 c 1.475,0.457 1.213,1.77 1.213,1.77 0,0 -0.395,-0.432 -1.738,-0.432 -1.343,0 -2.721,1.838 -2.721,1.838 -0.295,-0.592 0.459,-2.127 0.459,-2.127 -1.016,-0.168 -1.898,1.043 -1.898,1.043 -0.33,-0.686 0.721,-1.762 0.721,-1.762 -0.422,-0.133 -0.818,-0.076 -1.091,-0.001 -1.345,1.407 -2.788,1.636 -3.71,1.636 -1.385,0 -1.082,-1.178 -1.082,-1.178 1.623,-0.594 3.508,-2.967 3.885,-3.885 0.541,-1.332 0.441,-3.096 -0.787,-1.916 -1.23,1.178 -3.982,0.98 -3.982,0.98 1.428,-1.176 2.803,-3.196 3.195,-5.067 0.311,-1.48 -0.541,-1.77 -1.277,-0.929 -0.738,0.834 -1.719,0.444 -1.719,0.444 0,0 0.834,-1.285 1.129,-2.168 0.295,-0.881 0.1,-6.488 0.1,-6.488 0,0 0.982,-2.9 3.096,-2.9 0.637,0 2.949,0.889 2.949,3.096 0,2.121 -1.918,3.446 -1.918,3.446 0.248,0.788 1.375,1.966 3.049,2.745 1.68,0.795 1.426,-0.538 1.426,-0.538 -0.592,-0.343 -0.396,-1.353 -0.396,-1.353 0,0 2.387,0.297 2.387,-2.032 0,-2.343 -1.082,-2.78 -1.082,-2.78 -1.156,0.047 -1.598,-0.908 -1.598,-0.908 1.057,0.363 1.498,-0.221 1.498,-0.221 -0.391,-0.815 -2.432,-0.271 -2.432,-0.271 0,-0.989 0.688,-2.04 1.941,-2.04 1.252,0 1.4,0.142 1.672,0.418 0.27,0.27 0.939,0.107 0.939,0.107 1.73,-1.669 2.594,0.249 2.594,0.249 1.393,0.128 1.439,0.822 1.439,0.822 -1.179,0.478 -2.573,1.832 -2.573,1.832 z m 8.551,3.559 v 1.831 0.067 l -0.039,0.055 -0.65,0.881 v 18.833 c -1.883,0.834 -4.271,1.965 -6.751,3.607 V 67.634 L 74.017,66.753 73.976,66.698 V 66.631 64.8 64.599 h 0.197 1.149 l 2.521,-5.883 0.195,-0.465 0.199,0.465 2.521,5.883 h 1.148 0.197 V 64.8 z m 5.791,16.807 v 0.027 l -0.002,0.02 c -0.107,0.809 -1.273,2.174 -2.367,3.109 -0.389,0.33 -0.771,0.605 -1.135,0.807 -0.258,0.143 -1.08,0.514 -1.178,0.553 l -0.549,0.242 V 85.76 74.305 h 0.787 v 10.85 c 0.23,-0.107 0.457,-0.215 0.557,-0.27 0.279,-0.154 0.576,-0.365 0.875,-0.613 v -7.523 h 0.791 v 6.803 c 0.82,-0.82 1.375,-1.621 1.434,-1.984 V 73.35 h 0.787 v 8.257 z"
   inkscape:connector-curvature="0"
   style="fill:#ffffff" />

		</g>

	</g>

</g>
  </g>
</svg>
