<?xml version="1.0" encoding="UTF-8" standalone="no"?>
<!-- Created with Inkscape (http://www.inkscape.org/) -->

<svg
   xmlns:dc="http://purl.org/dc/elements/1.1/"
   xmlns:cc="http://creativecommons.org/ns#"
   xmlns:rdf="http://www.w3.org/1999/02/22-rdf-syntax-ns#"
   xmlns:svg="http://www.w3.org/2000/svg"
   xmlns="http://www.w3.org/2000/svg"
   xmlns:sodipodi="http://sodipodi.sourceforge.net/DTD/sodipodi-0.dtd"
   xmlns:inkscape="http://www.inkscape.org/namespaces/inkscape"
   width="400"
   height="250"
   id="svg2"
   version="1.1"
   viewBox="0 0 400 250"
   inkscape:version="0.48.4 r9939"
   sodipodi:docname="godealla.svg"
   inkscape:export-filename="D:\Testowane projekty\Merix_nowa Strona\Logo Home\akumulator.png"
   inkscape:export-xdpi="90"
   inkscape:export-ydpi="90">
  <defs
     id="defs4">
    <clipPath
       clipPathUnits="userSpaceOnUse"
       id="clipPath2999">
      <path
         inkscape:connector-curvature="0"
         d="m 0,266.156 1195.826,0 L 1195.826,0 0,0 0,266.156 z"
         id="path3001" />
    </clipPath>
    <clipPath
       clipPathUnits="userSpaceOnUse"
       id="clipPath2999-8">
      <path
         inkscape:connector-curvature="0"
         d="m 0,266.156 1195.826,0 L 1195.826,0 0,0 0,266.156 z"
         id="path3001-2" />
    </clipPath>
  </defs>
  <sodipodi:namedview
     id="base"
     pagecolor="#ffffff"
     bordercolor="#666666"
     borderopacity="1.0"
     inkscape:pageopacity="0.0"
     inkscape:pageshadow="2"
     inkscape:zoom="0.98994949"
     inkscape:cx="242.98738"
     inkscape:cy="160.34176"
     inkscape:document-units="px"
     inkscape:current-layer="layer1"
     showgrid="false"
     inkscape:window-width="1288"
     inkscape:window-height="829"
     inkscape:window-x="100"
     inkscape:window-y="100"
     inkscape:window-maximized="0" />
  <metadata
     id="metadata7">
    <rdf:RDF>
      <cc:Work
         rdf:about="">
        <dc:format>image/svg+xml</dc:format>
        <dc:type
           rdf:resource="http://purl.org/dc/dcmitype/StillImage" />
        <dc:title></dc:title>
      </cc:Work>
    </rdf:RDF>
  </metadata>
  <g
     inkscape:label="Layer 1"
     inkscape:groupmode="layer"
     id="layer1"
     transform="translate(0,-802.36217)">
    <g
       transform="matrix(0.27281604,0,0,0.27281604,97.761615,790.99441)"
       id="layer1-5"
       inkscape:label="Layer 1"
       style="fill:#ffffff">
      <g
         style="fill:#ffffff"
         id="Layer_2"
         transform="matrix(5.0834204,0,0,5.57862,-691.57666,-298.72143)">
        <g
           style="fill:#ffffff"
           id="g3212">
          <polygon
             id="polygon3214"
             points="66.675,131.673 66.675,132.3 72.023,132.3 72.023,131.673 70.423,131.673 70.423,121.156 78.324,121.156 78.324,131.673 76.723,131.673 76.723,132.3 82.081,132.3 82.081,131.673 80.491,131.673 80.491,110.073 82.081,110.073 82.081,109.446 76.733,109.446 76.733,110.073 78.324,110.073 78.324,120.529 70.423,120.529 70.423,110.073 72.023,110.073 72.023,109.446 66.675,109.446 66.675,110.073 68.266,110.073 68.266,131.673 "
             style="fill:#ffffff" />
          <path
             id="path3216"
             d="m 96.552,127.713 c -0.401,2.628 -1.583,3.96 -3.511,3.96 h -4.619 v -11.175 h 3.008 c 0.63,0 1.135,0.166 1.501,0.493 0.372,0.333 0.59,0.876 0.666,1.67 0.014,0.206 0.057,1.036 0.057,1.036 h 0.298 v -7.056 h -0.299 c -0.007,0.135 -0.042,0.859 -0.056,1.075 -0.076,0.784 -0.29,1.327 -0.653,1.658 -0.359,0.329 -0.869,0.496 -1.513,0.496 h -3.008 v -9.798 l 4.812,10e-4 c 1.312,0.101 2.197,0.679 2.63,1.718 0.207,0.484 0.343,1.077 0.406,1.761 0.055,0.592 0.098,1.259 0.131,2.001 h 0.235 v -6.107 H 84.33 v 0.627 h 1.935 l -0.011,21.584 H 84.33 v 0.643 h 12.661 v -6.551 h -0.237 c -0.038,0.67 -0.106,1.329 -0.202,1.964 z"
             inkscape:connector-curvature="0"
             style="fill:#ffffff" />
          <path
             id="path3218"
             d="m 113.085,131.209 c -0.422,-0.48 -0.748,-1.305 -0.996,-2.516 l -0.354,-1.652 c -0.12,-0.553 -0.268,-1.111 -0.44,-1.662 -0.575,-1.903 -1.58,-2.996 -3.074,-3.342 l -0.013,-0.549 c 1.127,-0.316 2.041,-1.012 2.714,-2.068 0.34,-0.534 0.612,-1.17 0.806,-1.889 0.195,-0.723 0.293,-1.586 0.293,-2.566 0,-0.973 -0.137,-1.835 -0.408,-2.566 -0.731,-1.986 -2.42,-2.952 -5.163,-2.952 h -6.29 v 0.627 h 1.641 v 21.6 h -1.641 v 0.627 h 6.168 v -0.627 h -2.37 v -9.782 h 1.833 c 0.839,0 1.562,0.388 2.149,1.151 0.25,0.324 0.467,0.707 0.645,1.137 0.172,0.416 0.323,0.857 0.447,1.312 0.124,0.451 0.229,0.905 0.314,1.361 0.084,0.451 0.184,1.014 0.299,1.688 0.113,0.662 0.258,1.283 0.432,1.848 0.166,0.54 0.376,0.959 0.625,1.242 0.395,0.444 1.155,0.67 2.26,0.67 h 1.069 l -0.011,-0.632 c -0.375,-0.028 -0.69,-0.183 -0.935,-0.46 z m -6.816,-9.868 h -2.31 v -11.268 h 2.127 c 1.373,0 2.366,0.522 2.951,1.553 0.461,0.816 0.686,2.009 0.686,3.645 0,1.663 -0.198,2.991 -0.587,3.947 -0.558,1.408 -1.523,2.123 -2.867,2.123 z"
             inkscape:connector-curvature="0"
             style="fill:#ffffff" />
          <path
             id="path3220"
             d="m 124.714,120.448 -0.968,-0.175 0.913,-0.367 c 0.378,-0.152 0.744,-0.365 1.086,-0.635 1.151,-0.897 1.734,-2.321 1.734,-4.23 0,-1.657 -0.35,-2.992 -1.042,-3.97 -0.768,-1.094 -1.872,-1.625 -3.374,-1.625 h -7.354 v 0.627 h 1.631 l -0.011,21.6 h -1.62 v 0.627 h 7.313 c 1.777,0 3.114,-0.577 4.086,-1.765 0.925,-1.116 1.394,-2.688 1.394,-4.672 0,-1.436 -0.324,-2.644 -0.966,-3.594 -0.663,-1.002 -1.587,-1.598 -2.822,-1.821 z m -5.217,-10.375 h 2.593 c 1.356,0 2.297,0.539 2.8,1.604 0.214,0.465 0.355,1.01 0.419,1.619 0.062,0.589 0.093,1.22 0.093,1.874 0,0.658 -0.042,1.287 -0.125,1.872 -0.313,2.049 -1.293,3.088 -2.914,3.088 h -2.867 v -10.057 z m 5.784,20.152 c -0.705,0.961 -1.73,1.448 -3.049,1.448 h -2.735 v -10.931 h 2.958 c 0.715,0 1.329,0.165 1.823,0.488 1.351,0.858 2.036,2.557 2.036,5.046 0,1.688 -0.348,3.016 -1.033,3.949 z"
             inkscape:connector-curvature="0"
             style="fill:#ffffff" />
          <path
             id="path3222"
             d="m 144.431,109.446 h -0.739 l -5.703,22.227 h -1.01 v 0.627 h 3.333 v -0.627 h -1.822 l 1.479,-5.909 h 6.585 l 1.613,5.909 h -1.688 v 0.627 h 5.155 v -0.627 h -1.087 l -6.116,-22.227 z m -4.31,15.691 2.994,-11.982 3.27,11.982 h -6.264 z"
             inkscape:connector-curvature="0"
             style="fill:#ffffff" />
          <path
             id="path3224"
             d="m 164.314,127.713 c -0.401,2.628 -1.583,3.96 -3.512,3.96 h -3.383 v -21.615 h 1.803 v -0.611 h -5.662 v 0.611 h 1.702 l -0.011,21.617 -2.167,-0.016 v 0.641 h 11.668 v -6.551 h -0.237 c -0.037,0.669 -0.105,1.328 -0.201,1.964 z"
             inkscape:connector-curvature="0"
             style="fill:#ffffff" />
          <path
             id="path3226"
             d="m 173.889,131.673 h -2.562 v -7.18 h 2.036 c 1.911,0 3.345,-0.727 4.385,-2.22 0.975,-1.414 1.469,-3.368 1.469,-5.809 0,-2.181 -0.463,-3.89 -1.379,-5.077 -0.998,-1.288 -2.518,-1.941 -4.516,-1.941 h -5.885 v 0.627 h 1.732 v 21.6 h -1.742 v 0.627 h 6.462 v -0.627 z m -2.563,-21.6 h 1.823 c 0.665,0 1.247,0.172 1.734,0.512 1.376,0.97 2.075,3.005 2.075,6.048 0,1.771 -0.248,3.348 -0.737,4.691 -0.664,1.778 -1.704,2.68 -3.091,2.68 h -1.803 v -13.931 z"
             inkscape:connector-curvature="0"
             style="fill:#ffffff" />
          <path
             id="path3228"
             d="m 193.751,125.749 h -0.236 c -0.037,0.666 -0.105,1.325 -0.203,1.963 -0.4,2.629 -1.582,3.961 -3.51,3.961 h -4.619 v -11.175 h 3.008 c 0.629,0 1.135,0.166 1.502,0.493 0.371,0.334 0.59,0.877 0.666,1.669 0.014,0.206 0.057,1.037 0.057,1.037 h 0.299 v -7.056 h -0.299 c 0,0 -0.043,0.86 -0.059,1.074 -0.074,0.785 -0.289,1.327 -0.652,1.659 -0.359,0.329 -0.869,0.496 -1.514,0.496 h -3.008 v -9.798 l 4.812,10e-4 c 1.311,0.101 2.195,0.679 2.629,1.718 0.207,0.486 0.344,1.078 0.406,1.762 0.055,0.591 0.1,1.258 0.131,2 h 0.236 v -6.107 H 181.09 v 0.627 h 1.934 l -0.01,21.584 h -1.924 v 0.643 h 12.66 v -6.551 z"
             inkscape:connector-curvature="0"
             style="fill:#ffffff" />
          <path
             id="path3230"
             d="m 203.091,131.673 h -2.371 v -9.782 h 1.834 c 0.838,0 1.561,0.388 2.148,1.151 0.25,0.325 0.467,0.708 0.645,1.137 0.174,0.42 0.324,0.861 0.447,1.312 0.123,0.451 0.229,0.905 0.314,1.361 0.084,0.451 0.184,1.014 0.299,1.689 0.111,0.654 0.258,1.275 0.432,1.847 0.166,0.54 0.377,0.958 0.625,1.242 0.395,0.444 1.154,0.67 2.26,0.67 h 1.07 l -0.012,-0.632 c -0.377,-0.027 -0.693,-0.182 -0.938,-0.459 -0.422,-0.48 -0.748,-1.305 -0.996,-2.516 l -0.354,-1.652 c -0.119,-0.552 -0.268,-1.109 -0.439,-1.662 -0.576,-1.903 -1.582,-2.996 -3.074,-3.342 l -0.014,-0.549 c 1.127,-0.316 2.041,-1.012 2.715,-2.068 0.34,-0.534 0.611,-1.17 0.807,-1.889 0.193,-0.724 0.293,-1.588 0.293,-2.566 0,-0.97 -0.137,-1.833 -0.408,-2.566 -0.73,-1.986 -2.42,-2.952 -5.162,-2.952 h -6.291 v 0.627 h 1.641 v 21.6 h -1.641 v 0.627 h 6.17 v -0.628 z m -2.371,-21.6 h 2.127 c 1.373,0 2.365,0.522 2.951,1.553 0.461,0.816 0.684,2.008 0.684,3.645 0,1.663 -0.197,2.992 -0.586,3.947 -0.559,1.408 -1.523,2.123 -2.867,2.123 h -2.309 v -11.268 z"
             inkscape:connector-curvature="0"
             style="fill:#ffffff" />
          <path
             id="path3232"
             d="m 212.848,111.989 c 0.553,-1.281 1.541,-1.932 2.936,-1.932 h 1.762 v 21.615 h -2.016 v 0.627 h 6.209 v -0.627 h -2.016 v -21.615 h 1.762 c 1.395,0 2.379,0.65 2.924,1.931 0.4,0.91 0.631,2.334 0.703,4.346 h 0.232 v -6.888 h -13.42 v 6.888 h 0.232 c 0.073,-2.014 0.301,-3.437 0.692,-4.345 z"
             inkscape:connector-curvature="0"
             style="fill:#ffffff" />
          <path
             id="path3234"
             d="m 241.277,131.673 h -2.562 v -7.18 h 2.035 c 1.91,0 3.346,-0.727 4.385,-2.22 0.975,-1.414 1.469,-3.368 1.469,-5.809 0,-2.181 -0.463,-3.889 -1.377,-5.077 -1,-1.288 -2.52,-1.941 -4.518,-1.941 h -5.885 v 0.627 h 1.732 v 21.6 h -1.742 v 0.627 h 6.463 v -0.627 z m -2.562,-21.6 h 1.822 c 0.664,0 1.246,0.172 1.732,0.512 1.377,0.971 2.076,3.006 2.076,6.048 0,1.77 -0.248,3.348 -0.738,4.691 -0.664,1.778 -1.703,2.68 -3.092,2.68 h -1.801 v -13.931 z"
             inkscape:connector-curvature="0"
             style="fill:#ffffff" />
          <path
             id="path3236"
             d="m 261.695,131.209 c -0.422,-0.48 -0.748,-1.305 -0.996,-2.516 l -0.354,-1.652 c -0.119,-0.552 -0.268,-1.109 -0.439,-1.662 -0.576,-1.903 -1.582,-2.996 -3.074,-3.342 l -0.014,-0.549 c 1.127,-0.316 2.041,-1.012 2.715,-2.068 0.34,-0.534 0.611,-1.17 0.807,-1.889 0.193,-0.724 0.293,-1.588 0.293,-2.566 0,-0.97 -0.137,-1.833 -0.408,-2.566 -0.73,-1.986 -2.42,-2.952 -5.162,-2.952 h -6.291 v 0.627 h 1.641 v 21.6 h -1.641 v 0.627 h 6.17 v -0.627 h -2.371 v -9.782 h 1.834 c 0.838,0 1.561,0.388 2.148,1.151 0.25,0.325 0.467,0.708 0.645,1.137 0.174,0.42 0.324,0.861 0.447,1.312 0.123,0.451 0.229,0.905 0.314,1.361 0.084,0.451 0.184,1.014 0.299,1.689 0.111,0.654 0.258,1.275 0.432,1.847 0.166,0.54 0.377,0.958 0.625,1.242 0.395,0.444 1.154,0.67 2.26,0.67 h 1.07 l -0.012,-0.632 c -0.377,-0.028 -0.694,-0.183 -0.938,-0.46 z m -6.816,-9.868 h -2.309 v -11.268 h 2.127 c 1.373,0 2.365,0.522 2.951,1.553 0.461,0.816 0.684,2.008 0.684,3.645 0,1.663 -0.197,2.992 -0.586,3.947 -0.558,1.408 -1.523,2.123 -2.867,2.123 z"
             inkscape:connector-curvature="0"
             style="fill:#ffffff" />
          <path
             id="path3238"
             d="m 276.238,127.712 c -0.4,2.629 -1.582,3.961 -3.512,3.961 h -4.617 v -11.175 h 3.008 c 0.629,0 1.133,0.166 1.5,0.493 0.373,0.334 0.59,0.877 0.666,1.669 0.014,0.206 0.057,1.037 0.057,1.037 h 0.299 v -7.056 h -0.299 c 0,0 -0.043,0.86 -0.057,1.074 -0.076,0.785 -0.289,1.327 -0.654,1.659 -0.359,0.329 -0.867,0.496 -1.512,0.496 h -3.008 v -9.798 l 4.811,10e-4 c 1.312,0.101 2.197,0.679 2.631,1.718 0.207,0.486 0.344,1.078 0.406,1.762 0.055,0.591 0.098,1.258 0.131,2 h 0.234 v -6.107 h -12.307 v 0.627 h 1.936 l -0.012,21.584 h -1.924 v 0.643 h 12.662 v -6.551 h -0.238 c -0.037,0.666 -0.105,1.325 -0.201,1.963 z"
             inkscape:connector-curvature="0"
             style="fill:#ffffff" />
          <path
             id="path3240"
             d="m 286.365,119.318 c -1.795,-1.194 -2.969,-2.188 -3.586,-3.038 -0.574,-0.781 -0.865,-1.765 -0.865,-2.923 0,-1.034 0.342,-1.895 1.016,-2.561 0.648,-0.633 1.48,-0.953 2.479,-0.953 1.078,0 2.002,0.418 2.744,1.244 0.77,0.869 1.229,2.041 1.365,3.485 h 0.428 v -5.127 h -0.395 c -0.037,0.362 -0.127,0.702 -0.27,1.013 l -0.193,0.426 -0.287,-0.369 c -0.283,-0.361 -0.705,-0.686 -1.256,-0.961 -0.549,-0.275 -1.23,-0.414 -2.025,-0.414 -1.422,0 -2.582,0.516 -3.549,1.576 -1.02,1.114 -1.537,2.61 -1.537,4.446 0,1.697 0.318,3.107 0.945,4.19 0.354,0.613 0.848,1.208 1.469,1.769 0.625,0.564 1.57,1.198 2.805,1.884 1.293,0.719 2.252,1.551 2.848,2.472 0.295,0.446 0.496,0.912 0.598,1.383 0.098,0.454 0.148,0.959 0.148,1.498 0,0.555 -0.088,1.063 -0.264,1.515 -0.545,1.347 -1.631,2.029 -3.23,2.029 -1.262,0 -2.361,-0.533 -3.264,-1.584 -0.805,-0.945 -1.357,-2.188 -1.643,-3.697 h -0.523 v 5.679 h 0.342 c 0.035,-0.64 0.184,-1.188 0.447,-1.636 l 0.219,-0.371 0.254,0.347 c 0.189,0.256 0.432,0.507 0.721,0.745 0.99,0.811 2.156,1.221 3.467,1.221 1.369,0 2.477,-0.546 3.387,-1.67 0.986,-1.218 1.486,-2.884 1.486,-4.95 0,-1.46 -0.299,-2.682 -0.889,-3.63 -0.65,-1.029 -1.788,-2.049 -3.392,-3.038 z"
             inkscape:connector-curvature="0"
             style="fill:#ffffff" />
          <path
             id="path3242"
             d="m 305.611,127.712 c -0.4,2.629 -1.582,3.961 -3.512,3.961 h -4.617 v -11.175 h 3.008 c 0.629,0 1.133,0.166 1.5,0.493 0.373,0.334 0.59,0.877 0.666,1.669 0.014,0.206 0.057,1.037 0.057,1.037 h 0.299 v -7.056 h -0.299 c 0,0 -0.043,0.86 -0.057,1.074 -0.076,0.785 -0.289,1.327 -0.654,1.659 -0.359,0.329 -0.867,0.496 -1.512,0.496 h -3.008 v -9.798 l 4.811,10e-4 c 1.312,0.101 2.197,0.679 2.631,1.718 0.207,0.486 0.344,1.078 0.406,1.762 0.055,0.591 0.098,1.258 0.131,2 h 0.234 v -6.107 h -12.307 v 0.627 h 1.936 l -0.012,21.584 h -1.924 v 0.643 h 12.662 v -6.551 h -0.238 c -0.037,0.666 -0.105,1.325 -0.201,1.963 z"
             inkscape:connector-curvature="0"
             style="fill:#ffffff" />
          <polygon
             id="polygon3244"
             points="322.105,132.3 322.105,110.073 323.959,110.073 323.959,109.446 319.715,109.446 319.715,110.073 321.68,110.073 321.68,127.624 321.137,127.74 312.887,109.446 308.795,109.446 308.795,110.073 310.557,110.073 310.557,131.673 308.795,131.673 308.795,132.3 313.039,132.3 313.039,131.673 310.984,131.673 310.984,112.24 311.525,112.123 320.707,132.3 "
             style="fill:#ffffff" />
          <path
             id="path3246"
             d="m 325.975,116.334 h 0.232 c 0.072,-2.014 0.301,-3.437 0.691,-4.345 0.553,-1.281 1.541,-1.932 2.936,-1.932 h 1.762 v 21.615 h -2.016 v 0.627 h 6.209 v -0.627 h -2.016 v -21.615 h 1.762 c 1.395,0 2.379,0.65 2.924,1.931 0.4,0.91 0.631,2.334 0.703,4.346 h 0.232 v -6.888 h -13.42 v 6.888 z"
             inkscape:connector-curvature="0"
             style="fill:#ffffff" />
          <path
             id="path3248"
             d="m 351.967,122.355 c -0.648,-1.028 -1.787,-2.049 -3.391,-3.037 -1.795,-1.194 -2.969,-2.188 -3.586,-3.038 -0.574,-0.781 -0.865,-1.765 -0.865,-2.923 0,-1.034 0.342,-1.895 1.016,-2.561 0.648,-0.633 1.48,-0.953 2.479,-0.953 1.078,0 2.002,0.418 2.744,1.244 0.77,0.869 1.229,2.041 1.365,3.485 h 0.428 v -5.127 h -0.395 c -0.037,0.362 -0.127,0.702 -0.27,1.013 l -0.193,0.426 -0.287,-0.369 c -0.283,-0.361 -0.705,-0.686 -1.256,-0.961 -0.549,-0.275 -1.23,-0.414 -2.025,-0.414 -1.422,0 -2.582,0.516 -3.549,1.576 -1.02,1.114 -1.537,2.61 -1.537,4.446 0,1.697 0.318,3.107 0.945,4.19 0.354,0.613 0.848,1.208 1.469,1.769 0.625,0.564 1.57,1.198 2.805,1.884 1.293,0.719 2.252,1.551 2.848,2.472 0.295,0.446 0.496,0.912 0.598,1.383 0.098,0.454 0.148,0.959 0.148,1.498 0,0.555 -0.088,1.063 -0.264,1.515 -0.545,1.347 -1.631,2.029 -3.23,2.029 -1.262,0 -2.361,-0.533 -3.264,-1.584 -0.805,-0.945 -1.357,-2.188 -1.643,-3.697 h -0.523 v 5.679 h 0.342 c 0.035,-0.64 0.184,-1.188 0.447,-1.636 l 0.219,-0.371 0.254,0.347 c 0.189,0.256 0.432,0.507 0.721,0.745 0.99,0.811 2.156,1.221 3.467,1.221 1.369,0 2.477,-0.546 3.387,-1.67 0.986,-1.218 1.486,-2.884 1.486,-4.95 -0.002,-1.461 -0.3,-2.682 -0.89,-3.631 z"
             inkscape:connector-curvature="0"
             style="fill:#ffffff" />
          <path
             id="path3250"
             d="m 231.49,160.361 c -1.777,0.021 -10.754,0.071 -20.986,0.126 v -2.225 h 0.566 c 0.225,0 0.408,-0.224 0.408,-0.5 v -0.892 c 0,-0.276 -0.184,-0.5 -0.408,-0.5 h -2.611 c -0.225,0 -0.407,0.224 -0.407,0.5 v 0.892 c 0,0.276 0.183,0.5 0.407,0.5 h 0.566 v 2.233 c -0.9,0.005 -1.809,0.009 -2.72,0.015 v -2.248 h 0.566 c 0.225,0 0.406,-0.224 0.406,-0.5 v -0.892 c 0,-0.276 -0.182,-0.5 -0.406,-0.5 h -2.611 c -0.225,0 -0.408,0.224 -0.408,0.5 v 0.892 c 0,0.276 0.184,0.5 0.408,0.5 h 0.566 v 2.256 c -0.907,0.004 -1.814,0.01 -2.721,0.014 v -2.27 h 0.566 c 0.225,0 0.407,-0.224 0.407,-0.5 v -0.892 c 0,-0.276 -0.183,-0.5 -0.407,-0.5 h -2.611 c -0.225,0 -0.407,0.224 -0.407,0.5 v 0.892 c 0,0.276 0.183,0.5 0.407,0.5 h 0.566 v 2.277 c -12.785,0.066 -24.644,0.126 -24.644,0.126 v 0.349 c -0.15,0 -0.377,0 -0.695,0 -0.597,0 -2.116,-1.852 -5.043,-2.578 -0.104,-0.098 -0.229,-0.165 -0.37,-0.165 -0.343,0 -0.621,0.338 -0.621,0.754 v 5.189 c 0,0.417 0.277,0.755 0.621,0.755 0.141,0 0.265,-0.068 0.37,-0.165 2.927,-0.726 4.447,-2.577 5.043,-2.577 0.317,0 0.545,0 0.695,0 v 0.348 c 0,0 5.18,0.025 12.381,0.062 -1.177,1.214 -1.905,2.89 -1.905,4.738 0,3.697 2.916,6.705 6.5,6.705 h 7.223 v 1.997 c 0,0.597 0.53,1.081 1.185,1.081 0.655,0 1.186,-0.484 1.186,-1.081 v -1.997 h 1.829 v 1.997 c 0,0.597 0.529,1.081 1.184,1.081 0.656,0 1.186,-0.484 1.186,-1.081 v -1.997 h 1.829 v 1.997 c 0,0.597 0.53,1.081 1.185,1.081 0.655,0 1.186,-0.484 1.186,-1.081 v -1.997 h 10.292 c 1.547,0 2.969,-0.562 4.086,-1.498 h 2.533 c 0.498,0 0.9,-0.403 0.9,-0.9 v -1.229 c 0,-0.498 -0.402,-0.9 -0.9,-0.9 h -0.477 c 0.229,-0.685 0.357,-1.415 0.357,-2.178 0,-1.75 -0.658,-3.34 -1.725,-4.535 2.771,0.018 4.738,0.031 5.473,0.039 9.547,0 18.785,10.25 18.785,10.25 v -11.51 -11.509 c 0,10e-4 -9.238,10.251 -18.785,10.251 z m -31.307,8.167 h -4.148 c -2.031,0 -3.677,1.578 -3.82,3.573 -2.181,-0.376 -3.854,-2.343 -3.854,-4.726 0,-2.357 1.637,-4.314 3.783,-4.719 2.556,0.013 5.273,0.027 8.039,0.041 v 5.831 z m 4.199,0 h -1.829 v -5.817 c 0.609,0.003 1.219,0.007 1.829,0.01 v 5.807 z m 4.199,3.653 h -1.829 v -9.447 c 0.612,0.003 1.222,0.006 1.829,0.01 v 9.437 z m 16.739,-2.627 h -0.646 c -0.824,-0.619 -1.998,-1.025 -2.832,-1.025 h -10.891 v -5.772 c 4.276,0.022 8.321,0.046 11.686,0.065 1.852,0.62 3.205,2.416 3.205,4.555 0,0.786 -0.199,1.519 -0.522,2.177 z"
             inkscape:connector-curvature="0"
             style="fill:#ffffff" />
        </g>
      </g>
    </g>
  </g>
</svg>
