<?xml version="1.0" encoding="UTF-8" standalone="no"?>
<!-- Created with Inkscape (http://www.inkscape.org/) -->

<svg
   xmlns:dc="http://purl.org/dc/elements/1.1/"
   xmlns:cc="http://creativecommons.org/ns#"
   xmlns:rdf="http://www.w3.org/1999/02/22-rdf-syntax-ns#"
   xmlns:svg="http://www.w3.org/2000/svg"
   xmlns="http://www.w3.org/2000/svg"
   xmlns:sodipodi="http://sodipodi.sourceforge.net/DTD/sodipodi-0.dtd"
   xmlns:inkscape="http://www.inkscape.org/namespaces/inkscape"
   width="400"
   height="250"
   id="svg2"
   version="1.1"
   viewBox="0 0 400 250"
   inkscape:version="0.48.4 r9939"
   sodipodi:docname="link4.svg"
   inkscape:export-filename="D:\Testowane projekty\Merix_nowa Strona\Logo Home\akumulator.png"
   inkscape:export-xdpi="90"
   inkscape:export-ydpi="90">
  <defs
     id="defs4">
    <clipPath
       clipPathUnits="userSpaceOnUse"
       id="clipPath2999">
      <path
         inkscape:connector-curvature="0"
         d="m 0,266.156 1195.826,0 L 1195.826,0 0,0 0,266.156 z"
         id="path3001" />
    </clipPath>
    <clipPath
       clipPathUnits="userSpaceOnUse"
       id="clipPath2999-8">
      <path
         inkscape:connector-curvature="0"
         d="m 0,266.156 1195.826,0 L 1195.826,0 0,0 0,266.156 z"
         id="path3001-2" />
    </clipPath>
    <clipPath
       clipPathUnits="userSpaceOnUse"
       id="clipPath2999-1">
      <path
         inkscape:connector-curvature="0"
         d="m 0,595.275 841.89,0 L 841.89,0 0,0 0,595.275 z"
         id="path3001-1" />
    </clipPath>
    <clipPath
       clipPathUnits="userSpaceOnUse"
       id="clipPath2999-6">
      <path
         id="path3245"
         d="m0,34.753,76.528,0v-34.753h-76.528v34.753z" />
    </clipPath>
    <clipPath
       id="clipPath2999-6-8"
       clipPathUnits="userSpaceOnUse">
      <path
         d="m0,34.753,76.528,0v-34.753h-76.528v34.753z"
         id="path3245-5" />
    </clipPath>
    <clipPath
       id="clipPath2999-1-1"
       clipPathUnits="userSpaceOnUse">
      <path
         id="path3001-1-6"
         d="m 0,595.275 841.89,0 L 841.89,0 0,0 0,595.275 z"
         inkscape:connector-curvature="0" />
    </clipPath>
    <clipPath
       id="clipPath2999-8-2"
       clipPathUnits="userSpaceOnUse">
      <path
         id="path3001-2-2"
         d="m 0,266.156 1195.826,0 L 1195.826,0 0,0 0,266.156 z"
         inkscape:connector-curvature="0" />
    </clipPath>
    <clipPath
       id="clipPath2999-2"
       clipPathUnits="userSpaceOnUse">
      <path
         id="path3001-3"
         d="m 0,266.156 1195.826,0 L 1195.826,0 0,0 0,266.156 z"
         inkscape:connector-curvature="0" />
    </clipPath>
    <clipPath
       clipPathUnits="userSpaceOnUse"
       id="clipPath2999-27">
      <path
         inkscape:connector-curvature="0"
         d="m 0,595.275 841.89,0 L 841.89,0 0,0 0,595.275 z"
         id="path3001-9" />
    </clipPath>
    <clipPath
       clipPathUnits="userSpaceOnUse"
       id="clipPath2999-12">
      <path
         id="path3361"
         d="m0,34.753,76.528,0v-34.753h-76.528v34.753z" />
    </clipPath>
    <clipPath
       clipPathUnits="userSpaceOnUse"
       id="clipPath3136">
      <path
         inkscape:connector-curvature="0"
         d="m 0,91.623 463.665,0 L 463.665,0 0,0 0,91.623 z"
         id="path3138" />
    </clipPath>
    <clipPath
       clipPathUnits="userSpaceOnUse"
       id="clipPath2999-4">
      <path
         inkscape:connector-curvature="0"
         d="m 0,266.156 1195.826,0 L 1195.826,0 0,0 0,266.156 z"
         id="path3001-11" />
    </clipPath>
  </defs>
  <sodipodi:namedview
     id="base"
     pagecolor="#ffffff"
     bordercolor="#666666"
     borderopacity="1.0"
     inkscape:pageopacity="0.0"
     inkscape:pageshadow="2"
     inkscape:zoom="0.7"
     inkscape:cx="261.8304"
     inkscape:cy="116.9961"
     inkscape:document-units="px"
     inkscape:current-layer="layer1"
     showgrid="false"
     inkscape:window-width="1288"
     inkscape:window-height="829"
     inkscape:window-x="100"
     inkscape:window-y="100"
     inkscape:window-maximized="0" />
  <metadata
     id="metadata7">
    <rdf:RDF>
      <cc:Work
         rdf:about="">
        <dc:format>image/svg+xml</dc:format>
        <dc:type
           rdf:resource="http://purl.org/dc/dcmitype/StillImage" />
        <dc:title></dc:title>
      </cc:Work>
    </rdf:RDF>
  </metadata>
  <g
     inkscape:label="Layer 1"
     inkscape:groupmode="layer"
     id="layer1"
     transform="translate(0,-802.36217)">
    <g
       transform="matrix(0.68609878,0,0,0.68609878,-222.76081,477.38262)"
       id="layer1-7"
       inkscape:label="Layer 1"
       style="fill:#ffffff">
      <g
         style="fill:#ffffff"
         id="g3130"
         inkscape:label="nokaut"
         transform="matrix(1.25,0,0,-1.25,326.39005,713.11679)">
        <g
           style="fill:#ffffff"
           id="g3132">
          <g
             style="fill:#ffffff"
             id="g3134"
             clip-path="url(#clipPath3136)">
            <g
               style="fill:#ffffff"
               id="g3140"
               transform="translate(14.584,36.4873)">
              <path
                 inkscape:connector-curvature="0"
                 d="m 0,0 c -4.007,0 -6.411,-3.099 -6.411,-8.708 0,-5.663 2.351,-8.761 6.517,-8.761 4.221,0 6.518,3.045 6.518,8.867 C 6.624,-3.046 4.22,0 0,0 m -0.481,-36.487 c -7.479,0 -12.02,3.098 -12.02,6.677 0,2.031 1.549,3.58 3.687,3.58 1.441,0 2.35,-0.695 3.525,-1.657 1.496,-1.228 2.671,-2.189 5.182,-2.189 5.396,0 6.731,2.137 6.731,7.478 l 0,2.619 c -1.709,-2.939 -4.327,-4.167 -8.387,-4.167 -7.746,0 -12.821,5.929 -12.821,15.17 0,9.883 5.075,15.92 12.714,15.92 4.06,0 6.891,-1.548 8.654,-4.701 l 0,0.481 c 0,2.136 1.496,3.686 3.74,3.686 2.671,0 3.899,-1.442 3.899,-4.541 l 0,-24.093 c 0,-10.203 -3.953,-14.263 -14.904,-14.263"
                 style="fill:#ffffff;fill-opacity:1;fill-rule:nonzero;stroke:none"
                 id="path3142" />
            </g>
            <g
               style="fill:#ffffff"
               id="g3144"
               transform="translate(49.9487,35.7393)">
              <path
                 inkscape:connector-curvature="0"
                 d="m 0,0 c -1.175,-1.068 -2.724,-0.588 -4.541,-0.908 -3.044,-0.588 -4.754,-2.779 -4.754,-6.624 l 0,-11.967 c 0,-2.991 -1.335,-4.487 -4.007,-4.487 -2.671,0 -4.006,1.496 -4.006,4.487 l 0,22.116 c 0,2.991 1.282,4.541 3.899,4.541 2.191,0 3.58,-1.282 3.58,-3.579 l 0,-2.618 c 1.602,4.007 4.22,6.197 6.891,6.197 2.725,0 4.22,-1.656 4.22,-4.113 C 1.282,1.655 0.855,0.694 0,0"
                 style="fill:#ffffff;fill-opacity:1;fill-rule:nonzero;stroke:none"
                 id="path3146" />
            </g>
            <g
               style="fill:#ffffff"
               id="g3148"
               transform="translate(76.606,11.7529)">
              <path
                 inkscape:connector-curvature="0"
                 d="m 0,0 c -2.404,0 -3.419,1.229 -3.686,3.686 l -0.107,1.015 c -1.923,-3.205 -5.128,-4.969 -9.188,-4.969 -6.624,0 -9.883,3.473 -9.883,10.365 l 0,16.507 c 0,2.991 1.335,4.541 4.006,4.541 2.671,0 4.007,-1.55 4.007,-4.541 l 0,-14.21 c 0,-4.06 1.175,-5.93 4.647,-5.93 3.74,0 6.144,2.35 6.144,6.304 l 0,13.836 c 0,2.991 1.389,4.541 4.06,4.541 2.618,0 4.006,-1.55 4.006,-4.541 l 0,-22.117 C 4.006,1.442 2.671,0 0,0"
                 style="fill:#ffffff;fill-opacity:1;fill-rule:nonzero;stroke:none"
                 id="path3150" />
            </g>
            <g
               style="fill:#ffffff"
               id="g3152"
               transform="translate(98.9355,36.4336)">
              <path
                 inkscape:connector-curvature="0"
                 d="m 0,0 c -4.113,0 -6.571,-3.099 -6.571,-8.975 0,-5.983 2.458,-9.242 6.732,-9.242 3.953,0 6.517,3.313 6.517,8.921 C 6.678,-3.205 4.274,0 0,0 m 2.297,-25.161 c -3.846,0 -6.891,1.655 -8.868,4.754 l 0,-11.432 c 0,-2.992 -1.282,-4.487 -3.899,-4.487 -2.618,0 -3.953,1.495 -3.953,4.487 l 0,33.762 c 0,2.991 1.281,4.541 4.006,4.541 2.351,0 3.419,-1.176 3.686,-3.687 l 0.107,-1.014 c 1.763,3.312 4.968,5.181 8.814,5.181 7.319,0 12.448,-6.303 12.448,-15.919 0,-9.882 -5.289,-16.186 -12.341,-16.186"
                 style="fill:#ffffff;fill-opacity:1;fill-rule:nonzero;stroke:none"
                 id="path3154" />
            </g>
            <g
               style="fill:#ffffff"
               id="g3156"
               transform="translate(134.0332,27.0313)">
              <path
                 inkscape:connector-curvature="0"
                 d="m 0,0 c -3.099,-1.389 -5.609,-1.549 -7.212,-2.03 -2.564,-0.695 -3.793,-1.656 -3.793,-4.006 0,-2.244 1.549,-3.633 4.167,-3.633 4.113,0 6.838,2.671 6.838,6.892 L 0,0 z m 4.487,-15.813 c -2.991,0 -4.327,1.443 -4.38,4.808 -1.977,-3.099 -5.342,-4.808 -9.67,-4.808 -5.715,0 -9.134,3.366 -9.134,9.349 0,5.77 2.724,8.227 8.867,9.563 3.74,0.748 6.678,0.748 8.441,1.335 0.801,0.267 1.229,1.015 1.229,2.244 0,2.51 -1.443,3.419 -4.915,3.419 -1.923,0 -3.472,-0.534 -4.541,-1.549 -1.335,-1.122 -2.297,-2.992 -4.487,-2.992 -1.816,0 -3.259,1.442 -3.259,3.312 0,3.633 4.701,7.532 12.02,7.532 8.494,0 13.034,-3.098 13.034,-8.494 l 0,-17.094 c 0,-1.603 0.268,-2.778 0.268,-3.58 0,-1.87 -1.23,-3.045 -3.473,-3.045"
                 style="fill:#ffffff;fill-opacity:1;fill-rule:nonzero;stroke:none"
                 id="path3158" />
            </g>
            <g
               style="fill:#ffffff"
               id="g3160"
               transform="translate(427.5664,65.7246)">
              <path
                 inkscape:connector-curvature="0"
                 d="m 0,0 c -0.473,0 -0.789,-0.108 -1.048,-0.365 -0.264,-0.265 -0.37,-0.581 -0.37,-0.998 l 0,-4.611 c -0.051,-0.365 0.054,-0.783 0.21,-1.207 0.16,-0.365 0.628,-0.629 1.415,-0.785 l 5.085,0 0,-30.389 c -0.055,-2.619 0.207,-5.081 0.839,-7.439 0.572,-2.252 1.937,-4.35 3.982,-6.184 1.886,-1.625 3.873,-2.671 5.916,-3.193 1.992,-0.473 3.881,-0.736 5.716,-0.682 2.567,0.047 4.924,0.37 7.123,0.995 2.149,0.681 3.877,1.568 5.188,2.619 1.309,1.047 1.992,2.201 2.043,3.408 -0.051,1.254 -0.315,2.148 -0.89,2.666 -0.578,0.578 -1.258,0.945 -2.045,1.053 -0.784,0.158 -1.521,0.209 -2.147,0.158 -1.886,0.156 -3.246,0.68 -4.087,1.571 -0.784,0.89 -1.313,2.041 -1.52,3.456 -0.205,1.366 -0.314,2.83 -0.314,4.35 l 0,15.664 -11.787,11.947 17.97,0 0.68,0 c 0.265,0.055 0.579,0.108 0.84,0.156 0.471,0.157 0.733,0.525 0.887,1.102 0.058,0.104 0.058,0.421 0.058,0.998 0.048,0.574 0.048,1.203 0.048,1.937 l 0,1.884 c 0,0.842 -0.209,1.364 -0.628,1.576 -0.471,0.26 -1.098,0.365 -1.885,0.313 l -6.183,0 0,11.213 c 0.053,0.733 -0.052,1.519 -0.312,2.357 -0.212,0.838 -0.893,1.311 -2.099,1.418 -0.364,0 -0.628,-0.055 -0.889,-0.159 -0.263,-0.056 -0.579,-0.16 -0.892,-0.265 L 7.229,8.487 C 6.336,8.118 5.813,7.648 5.55,7.18 5.345,6.707 5.237,5.973 5.292,5.03 L 5.292,0 0,0 z"
                 style="fill:#ffffff;fill-opacity:1;fill-rule:nonzero;stroke:none"
                 id="path3162" />
            </g>
            <g
               style="fill:#ffffff"
               id="g3164"
               transform="translate(422.8486,65.251)">
              <path
                 inkscape:connector-curvature="0"
                 d="m 0,0 c -0.524,0.365 -1.206,0.525 -2.046,0.474 l -15.296,0 c -1.1,0 -1.781,-0.265 -2.044,-0.735 -0.26,-0.469 -0.368,-1.098 -0.368,-1.992 l 0,-34.266 c 0.055,-1.519 -0.054,-2.83 -0.414,-3.824 -0.369,-1.047 -1.314,-1.572 -2.728,-1.624 -1.624,0.052 -2.569,0.577 -2.933,1.624 -0.366,0.994 -0.475,2.305 -0.419,3.824 l 0,34.582 c -0.056,1.103 -0.315,1.781 -0.838,2.045 -0.528,0.257 -1.208,0.417 -1.994,0.366 l -14.775,0 c -0.678,0.051 -1.308,-0.109 -1.833,-0.366 -0.577,-0.264 -0.839,-0.942 -0.886,-1.94 l 0,-35.838 c -0.058,-2.409 0.258,-4.662 0.833,-6.76 0.629,-2.148 1.731,-4.037 3.356,-5.66 1.673,-1.623 4.084,-2.933 7.28,-3.877 3.197,-0.89 7.336,-1.365 12.415,-1.412 3.249,0 6.393,0.258 9.485,0.838 3.093,0.574 5.818,1.465 8.071,2.566 2.309,1.102 3.928,2.512 4.822,4.194 0.473,0.886 0.787,1.885 0.938,2.931 0.109,1.049 0.161,2.25 0.161,3.565 l 0,39.241 C 0.787,-0.938 0.526,-0.261 0,0"
                 style="fill:#ffffff;fill-opacity:1;fill-rule:nonzero;stroke:none"
                 id="path3166" />
            </g>
            <g
               style="fill:#ffffff"
               id="g3168"
               transform="translate(289.084,91.2939)">
              <path
                 inkscape:connector-curvature="0"
                 d="m 0,0 c -0.525,0.261 -1.259,0.368 -2.203,0.316 l -14.462,0 c -0.991,0 -1.676,-0.16 -2.146,-0.473 -0.472,-0.368 -0.681,-0.997 -0.681,-1.94 l 0.523,-74.928 c 0,-1.045 0.21,-1.774 0.579,-2.196 0.364,-0.424 0.993,-0.633 1.937,-0.633 l 14.67,0 c 0.785,-0.05 1.366,0.053 1.835,0.317 0.472,0.262 0.734,0.891 0.786,1.885 l 0,21.589 10.476,-21.693 c 0.42,-0.89 0.838,-1.465 1.313,-1.728 0.471,-0.262 1.152,-0.42 2.042,-0.37 l 17.394,0 c 0.523,-0.05 1.105,0.053 1.784,0.262 0.629,0.16 0.994,0.733 1.045,1.623 -0.051,0.369 -0.156,0.739 -0.312,1.106 -0.158,0.312 -0.312,0.677 -0.524,1.095 L 17.03,-46.213 30.599,-29.76 c 0.313,0.365 0.576,0.786 0.835,1.152 0.265,0.365 0.422,0.785 0.422,1.257 -0.052,0.839 -0.367,1.361 -0.996,1.573 -0.576,0.156 -1.156,0.26 -1.728,0.209 l -10.586,0 c -1.308,0.051 -2.253,-0.109 -2.931,-0.474 -0.579,-0.312 -1.257,-0.994 -1.992,-2.044 l -12.785,-17.392 0,43.49 C 0.838,-0.894 0.574,-0.264 0,0"
                 style="fill:#ffffff;fill-opacity:1;fill-rule:nonzero;stroke:none"
                 id="path3170" />
            </g>
            <g
               style="fill:#ffffff"
               id="g3172"
               transform="translate(238.3652,67.2959)">
              <path
                 inkscape:connector-curvature="0"
                 d="M 0,0 C -3.199,0.052 -6.237,-0.473 -9.169,-1.52 L 1.466,-12.26 c 0.105,-0.053 0.21,-0.16 0.314,-0.316 l 0.052,-0.053 c 0.105,-0.156 0.212,-0.261 0.263,-0.417 0.102,-0.156 0.21,-0.368 0.259,-0.521 l 0.055,-0.056 c 0.314,-0.733 0.526,-1.571 0.682,-2.462 0.209,-1.154 0.365,-2.201 0.472,-3.198 0.154,-1.624 0.209,-3.039 0.261,-4.242 0.053,-1.206 0.053,-2.413 0.053,-3.617 0.052,-3.195 -0.053,-6.078 -0.211,-8.591 -0.158,-2.517 -0.575,-4.506 -1.206,-5.921 -0.572,-1.468 -1.57,-2.201 -2.881,-2.257 -1.203,0.056 -2.097,0.789 -2.562,2.257 -0.529,1.466 -0.842,3.244 -0.998,5.343 -0.108,2.097 -0.157,4.086 -0.108,6.026 l 0,2.674 c 0.052,1.256 0.052,2.671 0.108,4.19 0.048,1.52 0.156,2.99 0.311,4.35 0.107,0.998 0.263,2.092 0.471,3.247 0.16,0.789 0.367,1.519 0.681,2.201 l -19.753,0 c -0.575,-1.311 -1.15,-2.726 -1.623,-4.35 -0.786,-2.827 -1.203,-6.599 -1.26,-11.261 0.057,-6.76 1.312,-12.211 3.673,-16.35 2.356,-4.139 5.449,-7.127 9.168,-9.064 3.718,-1.889 7.701,-2.831 11.892,-2.776 3.195,0 6.339,0.522 9.432,1.621 3.091,1.102 5.869,2.885 8.331,5.24 2.461,2.36 4.35,5.449 5.762,9.277 1.364,3.825 1.993,8.38 1.836,13.723 l 0,0.109 c -0.158,5.183 -1.208,9.85 -3.144,13.987 -1.938,4.086 -4.717,7.337 -8.384,9.746 C 9.797,-1.311 5.294,-0.056 0,0"
                 style="fill:#ffffff;fill-opacity:1;fill-rule:nonzero;stroke:none"
                 id="path3174" />
            </g>
            <g
               style="fill:#ffffff"
               id="g3176"
               transform="translate(342.8398,29.7266)">
              <path
                 inkscape:connector-curvature="0"
                 d="m 0,0 c 0.209,1.416 0.732,2.723 1.573,3.933 0.629,0.89 1.412,1.571 2.306,2.041 0.89,0.421 2.044,0.841 3.561,1.207 l 0,-10.48 C 7.494,-4.189 7.44,-5.132 7.338,-6.13 7.182,-7.075 6.863,-7.858 6.395,-8.54 5.923,-9.222 5.083,-9.534 3.879,-9.589 2.518,-9.534 1.466,-8.956 0.732,-7.751 0.054,-6.55 -0.314,-4.976 -0.314,-3.087 -0.363,-2.409 -0.261,-1.411 0,0 m 8.333,37.569 c -2.935,0.052 -5.815,-0.101 -8.696,-0.418 -2.884,-0.315 -5.612,-0.997 -8.231,-2.044 -2.723,-1.206 -4.871,-2.725 -6.39,-4.554 -1.521,-1.84 -2.254,-3.884 -2.304,-6.081 0,-1.259 0.315,-2.466 0.889,-3.665 0.629,-1.207 1.573,-2.257 2.829,-3.042 1.312,-0.789 2.937,-1.207 4.976,-1.256 1.889,0.049 3.355,0.365 4.403,0.994 1.049,0.577 1.836,1.412 2.357,2.41 0.577,0.994 1.052,2.093 1.52,3.3 0.262,0.942 0.735,1.836 1.312,2.621 0.626,0.786 1.622,1.207 2.986,1.256 1.153,-0.049 1.988,-0.365 2.462,-0.995 0.47,-0.681 0.736,-1.467 0.892,-2.358 0.102,-0.942 0.156,-1.832 0.102,-2.621 l 0,-5.605 c -2.357,-0.313 -5.081,-0.834 -8.118,-1.519 -2.988,-0.63 -5.925,-1.624 -8.803,-2.931 -2.883,-1.367 -5.241,-3.251 -7.128,-5.716 -1.831,-2.41 -2.828,-5.553 -2.879,-9.43 0.051,-3.46 0.888,-6.287 2.409,-8.436 1.622,-2.097 3.668,-3.667 6.185,-4.71 2.458,-1.106 5.079,-1.786 7.857,-2.153 2.776,-0.369 5.346,-0.525 7.754,-0.47 4.766,0.046 8.596,0.521 11.473,1.359 2.83,0.891 4.929,1.781 6.238,2.726 1.306,0.944 2.093,1.623 2.303,1.989 0.733,0.996 1.154,2.045 1.315,3.195 0.151,1.207 0.259,2.361 0.21,3.51 l 0,29.346 c 0.049,1.466 -0.059,2.986 -0.319,4.554 -0.263,1.523 -0.89,3.147 -1.883,4.774 -1.734,2.462 -3.934,4.086 -6.71,4.872 -2.723,0.785 -5.71,1.15 -9.011,1.098"
                 style="fill:#ffffff;fill-opacity:1;fill-rule:nonzero;stroke:none"
                 id="path3178" />
            </g>
            <g
               style="fill:#ffffff"
               id="g3180"
               transform="translate(162.2842,63.4189)">
              <path
                 inkscape:connector-curvature="0"
                 d="m 0,0 c -1.779,-0.942 -2.933,-2.045 -3.457,-3.248 -0.473,-1.203 -0.681,-2.621 -0.629,-4.35 l 0,-41.443 c -0.052,-0.947 0.106,-1.682 0.419,-2.15 0.315,-0.526 0.995,-0.788 2.096,-0.788 l 14.673,0 c 0.889,-0.05 1.624,0.053 2.198,0.317 0.576,0.262 0.892,0.891 0.944,1.99 l 0,35.107 c -0.052,1.31 0,2.566 0.155,3.772 0.16,1.203 0.474,2.149 1.05,2.935 0.627,0.734 1.624,1.098 2.986,1.151 1.836,-0.053 2.933,-0.786 3.354,-2.146 0.421,-1.366 0.578,-2.99 0.524,-4.875 l 0,-35.524 c 0,-1.051 0.209,-1.781 0.577,-2.148 0.364,-0.471 1.049,-0.629 1.939,-0.579 l 14.881,0 c 0.993,-0.05 1.781,0.108 2.25,0.473 0.474,0.365 0.684,1.051 0.684,2.151 l 0,39.765 c 0.049,0.786 -0.055,1.78 -0.315,3.039 -0.209,1.311 -0.786,2.622 -1.783,3.985 -0.996,1.415 -2.567,2.67 -4.819,3.877 -1.625,0.73 -3.408,1.307 -5.399,1.675 -1.991,0.369 -3.98,0.63 -6.022,0.682 -0.892,0.049 -1.784,0.107 -2.727,0.153 -0.89,0.056 -1.834,0.056 -2.725,0.056 -1.728,0 -3.825,-0.102 -6.286,-0.261 C 12.104,3.407 9.643,3.039 7.073,2.462 4.507,1.885 2.148,1.102 0,0"
                 style="fill:#ffffff;fill-opacity:1;fill-rule:nonzero;stroke:none"
                 id="path3182" />
            </g>
          </g>
        </g>
      </g>
    </g>
  </g>
</svg>
